<?xml version="1.0" encoding="utf-8"?>
<!-- Generator: Adobe Illustrator 23.0.6, SVG Export Plug-In . SVG Version: 6.00 Build 0)  -->
<svg version="1.1" xmlns="http://www.w3.org/2000/svg" xmlns:xlink="http://www.w3.org/1999/xlink" x="0px" y="0px"
	 viewBox="0 0 897 768" style="enable-background:new 0 0 897 768;" xml:space="preserve">
<style type="text/css">
	.st0{display:none;}
	.st1{display:inline;fill:#E53950;}
	.st2{display:inline;fill:#FDD743;}
	.st3{display:inline;fill:#453D83;}
	.st4{display:inline;fill:#5F56AF;}
	.st5{display:inline;fill:#FE9F01;}
	.st6{display:inline;fill:#6AA9FE;}
	.st7{display:inline;fill:#FE7A4A;}
	.st8{display:inline;fill:#7ED7F5;}
	.st9{display:inline;fill:#A6CFD6;}
	.st10{display:inline;fill:#D3E5FC;}
	.st11{display:inline;fill:#D4E7FD;}
	.st12{display:inline;fill:#ECF4FE;}
	.st13{display:inline;fill:#4895FE;}
	.st14{display:inline;fill:#E53C52;}
	.st15{display:inline;fill:#4A96FE;}
	.st16{display:inline;fill:#4995FE;}
	.st17{display:inline;fill:#474085;}
	.st18{display:inline;fill:#5F55AE;}
	.st19{display:inline;fill:#D3E6FD;}
	.st20{display:inline;fill:#EAF3FE;}
	.st21{display:inline;fill:#EBF3FE;}
	.st22{display:inline;fill:#FECB30;}
	.st23{display:inline;fill:#E7A037;}
	.st24{display:inline;fill:#802912;}
	.st25{display:inline;fill:#9A532E;}
	.st26{fill:#C3E73A;}
	.st27{fill:#90D860;}
	.st28{fill:#4793FE;}
	.st29{fill:#D10041;}
	.st30{fill:#FE0059;}
	.st31{fill:#5ECAF0;}
	.st32{fill:#80D5F3;}
	.st33{fill:#DB0C4E;}
	.st34{fill:#54A1FC;}
	.st35{fill:#FE377C;}
	.st36{fill:#DC9366;}
	.st37{fill:#E4AD8B;}
	.st38{fill:#FEEBE1;}
	.st39{fill:#FDDCCC;}
</style>
<g id="Layer_1" class="st0">
	<path class="st1" d="M702.21,13.53c9.98,1.05,14.66,8.37,18.85,16.12c30.53,56.56,61.7,112.75,94.94,167.79
		c13.85,22.93,30,44.55,40.68,69.32c5.99,13.89,10.56,28.21,12.01,43.39c0.09,0.94,0.96,1.8,1.47,2.7c0,13.44,0,26.89,0,40.33
		c-4.84,13.24-5.89,27.46-11.39,40.62c-25.69,61.47-71.64,97.18-136.78,109.16c-8.36,1.54-16.67,1.32-25.03,1.59
		c0.01-159.82,0.01-319.64,0.02-479.45c0-2.24,0.15-4.49-0.01-6.72C696.7,14.48,699.13,13.7,702.21,13.53z"/>
	<path class="st2" d="M30,312.86c3.3-5.41,2.91-11.74,4.18-17.62c5.67-26.27,19.59-48.54,33.53-70.85
		c39.58-63.35,76.11-128.45,111.31-194.32c5.19-9.7,11.58-17.19,23.73-16.81c0.16,2.51,0.44,5.02,0.44,7.52
		c0.01,161.17-0.01,322.33-0.02,483.5c-62.36-0.81-110.35-28.31-145.43-79.06c-14.37-20.79-21.97-44.43-25.99-69.27
		c-0.26-1.62-0.06-3.41-1.76-4.45C30,338.62,30,325.74,30,312.86z"/>
	<path class="st3" d="M870.16,684.21c-6.1,13.77-17.05,18.2-31.6,18.16c-104.81-0.29-209.62-0.21-314.43-0.25
		c-0.02-16.57-0.04-33.14-0.07-49.71c106.87-0.03,213.73-0.01,320.6-0.18c12.58-0.02,19.52,7.43,25.5,16.86
		C870.16,674.13,870.16,679.17,870.16,684.21z"/>
	<path class="st4" d="M376.18,701.26c-17.32,0.1-34.64,0.27-51.95,0.28c-87.18,0.03-174.36-0.24-261.54,0.25
		C47.77,701.87,36.64,698,30,684.21c0-5.04,0-10.08,0-15.12c7.93-14.38,20.59-17.03,36.05-16.96c99.7,0.49,199.4,0.26,299.1,0.28
		c3.64,0,7.28,0.1,10.92,0.15C376.1,668.79,376.14,685.02,376.18,701.26z"/>
	<path class="st5" d="M203.18,504.29c0.01-161.17,0.03-322.33,0.02-483.5c0-2.51-0.29-5.01-0.44-7.52
		c13.03-2.1,20.07,5.66,25.6,15.71c22.78,41.38,45.39,82.86,68.33,124.15c9.62,17.31,19.44,34.53,30.49,50.99
		c8.15,13.65,16.27,27.31,24.46,40.94c28.32,47.15,31.75,96.64,13.73,148.04c-8.08,23.05-22.12,42.46-38.08,60.61
		c-15.76,14.28-32.55,27.13-52.12,35.78C252.28,499.62,228.52,505.9,203.18,504.29z"/>
	<path class="st6" d="M450.22,12.57c11.85-0.34,18.86,6.27,24.21,16.05c23.58,43.12,47.22,86.2,71.15,129.13
		c8.83,15.84,17.67,31.7,28,46.65c8.69,14.61,17.56,29.11,26.03,43.85c26.8,46.67,29.63,95.36,11.66,145.62
		c-8.11,22.69-21.85,41.89-37.86,59.61c-14.97,13.94-31.07,26.27-49.78,34.9c-23.34,10.77-47.59,17.24-73.53,15.99
		c-0.01-92.6-0.03-185.19-0.02-277.79C450.1,155.24,450.18,83.91,450.22,12.57z"/>
	<path class="st7" d="M573.42,453.48c16.01-17.71,29.75-36.91,37.86-59.61c17.97-50.26,15.14-98.95-11.66-145.62
		c-8.46-14.74-17.34-29.25-26.03-43.85c34.65-57.32,66.76-116.08,98.3-175.16c7.35-13.77,17.81-19.12,30.33-15.71
		c-3.09,0.17-5.52,0.95-5.24,4.85c0.16,2.23,0.01,4.48,0.01,6.72c-0.01,159.82-0.01,319.63-0.02,479.45
		C648.59,504.95,608.03,486.41,573.42,453.48z"/>
	<path class="st8" d="M450.22,12.57c-0.05,71.34-0.12,142.67-0.14,214.01c-0.02,92.6,0.01,185.2,0.02,277.79
		c-44.56,0.54-82.68-15.64-115.89-44.6c-2.31-2.02-4.62-4.04-6.93-6.06c15.96-18.15,30-37.56,38.08-60.61
		c18.02-51.4,14.6-100.89-13.73-148.04c-8.19-13.63-16.31-27.3-24.46-40.94c18.67-29.22,35.43-59.56,52.32-89.81
		c15.81-28.32,31.07-56.95,46.33-85.56C431.15,18.78,438.73,12.9,450.22,12.57z"/>
	<path class="st9" d="M524.06,652.4c0.02,16.57,0.04,33.14,0.07,49.71c-0.04,8.1,0.02,16.21-0.15,24.31
		c-0.3,14.38-10.55,24.7-25.06,24.85c-16.21,0.17-32.42-0.04-48.63-0.09c-0.09-65.47-0.17-130.94-0.25-196.41
		c6.66-1.77,11.88,1.11,16.32,5.51c17.11,16.95,34.14,33.98,51.08,51.09c4.49,4.53,6.77,10.07,6.61,16.66
		C523.86,636.16,524.04,644.28,524.06,652.4z"/>
	<path class="st10" d="M450.04,554.78c0.08,65.47,0.17,130.94,0.25,196.41c-16.41,0.06-32.82,0.28-49.22,0.15
		c-13.28-0.11-24.69-11.72-24.89-25.05c-0.13-8.34-0.01-16.69,0-25.03c-0.04-16.23-0.07-32.47-0.11-48.7
		c0.51-41.11-3.65-30.47,25.36-59.97c9.97-10.14,20.14-20.09,30.15-30.2C436.69,557.22,442.38,553.67,450.04,554.78z"/>
</g>
<g id="Layer_2" class="st0">
	<path class="st11" d="M873,27.3c0,237.58,0,475.15,0,712.73c-5.26,13.14-15.14,18.8-29.11,18.79c-132.37-0.1-264.74-0.08-397.1-0.1
		c-0.07-33.38-0.13-66.76-0.2-100.14c3.69-0.07,7.38-0.21,11.07-0.21c95.43-0.01,190.86,0.01,286.29-0.04
		c17.79-0.01,27.26-9.22,28.09-26.97c0.09-1.98,0.03-3.98,0.03-5.96c0-128.09,0-256.18,0-384.27c0-23.95-8.96-32.86-33.02-32.87
		c-97.42-0.04-194.83-0.08-292.25-0.12c-0.07-16.36-0.13-32.72-0.2-49.07c15.58-1.72,25.54-11.54,25.53-25.18
		c0-13.68-10.03-23.56-25.53-25.17c0.06-33.37,0.13-66.75,0.19-100.12C578.3,8.59,709.82,8.66,841.33,8.45
		C856.08,8.43,867.31,12.84,873,27.3z M746.55,158.74c13.88-0.04,24.78-10.88,24.85-24.74c0.07-13.83-10.78-24.83-24.63-24.98
		c-14.09-0.15-25.56,11.23-25.38,25.17C721.57,147.83,732.79,158.78,746.55,158.74z M646.2,158.7
		c13.93,0.12,25.12-10.55,25.45-24.28c0.33-13.65-10.68-25.12-24.37-25.36c-14.4-0.26-25.86,10.65-25.94,24.71
		C621.25,147.43,632.37,158.59,646.2,158.7z M571.37,133.83c-0.02-14.09-10.54-24.68-24.6-24.77
		c-13.83-0.08-24.89,10.72-25.03,24.46c-0.15,14.21,10.93,25.31,25.14,25.18C560.93,158.57,571.4,147.94,571.37,133.83z"/>
	<path class="st12" d="M446.79,8.61c-0.06,33.37-0.13,66.75-0.19,100.12l0.19,0.53c-100.21-0.07-200.41-0.14-300.62-0.15
		c-2.23,0-4.53,0.44-6.67,1.1c-12.11,3.78-18.74,14.81-16.93,27.92c1.63,11.76,11.59,20.48,24.43,20.54
		c37.19,0.18,74.38,0.1,111.57,0.07c62.73-0.05,125.47-0.15,188.2-0.22l-0.18,0.56c0.07,16.36,0.13,32.72,0.2,49.07
		c0,0,0.2,0.55,0.2,0.55c-0.85-0.07-1.7-0.2-2.55-0.2c-97.99-0.03-195.98-0.14-293.97,0.01c-18.85,0.03-28.05,9.81-28.06,28.62
		c-0.03,73.28-0.02,146.56-0.02,219.84c0,58.51-0.05,117.02,0.05,175.53c0.03,15.69,9.34,25.69,24.4,25.7
		c99.98,0.07,199.95-0.04,299.93-0.09c0,0-0.19,0.47-0.19,0.47c0.07,33.38,0.13,66.76,0.2,100.14c-131,0.02-262.01-0.05-393.01,0.19
		c-14.52,0.03-26.13-3.84-33.32-17.18c0-238.71,0-477.43,0-716.14C26.55,14.44,35.9,8.57,48.66,8.57
		C181.37,8.56,314.08,8.59,446.79,8.61z"/>
	<path class="st13" d="M446.79,208.15c97.42,0.04,194.83,0.08,292.25,0.12c24.06,0.01,33.02,8.92,33.02,32.87
		c0.01,128.09,0,256.18,0,384.27c0,1.99,0.07,3.98-0.03,5.96c-0.83,17.74-10.3,26.96-28.09,26.97
		c-95.43,0.05-190.86,0.02-286.29,0.04c-3.69,0-7.38,0.14-11.07,0.21c0,0,0.19-0.47,0.19-0.47c-0.02-51.3-0.01-102.6-0.1-153.89
		c-0.01-3.27,1.17-6.86-1.63-9.71c1.07-2.87,2.14-5.74,3.2-8.62c0.41-0.38,0.98-0.68,1.22-1.15
		c23.36-46.52,46.75-93.03,69.96-139.63c3.27-6.56,3.73-13.74,0.74-20.58c-4.02-9.2-10.86-15.1-21.26-15.85
		c-10.96-0.79-19.33,3.55-24.53,13.33c-9.4,17.68-17.3,36.15-27.59,53.37c0.07-55.56,0.14-111.12,0.22-166.68L446.79,208.15z
		 M601.24,433.56c-15.19,10.22-29.5,19.45-43.36,29.29c-11.93,8.47-14.58,24.29-6.64,35.42c7.79,10.91,22.77,13.33,35,5.38
		c13.34-8.67,26.52-17.57,39.77-26.38c10.88-7.24,21.97-14.18,32.57-21.81c16.59-11.95,18.1-30.66,2.17-42.03
		c-25.18-17.97-51.08-34.99-77.32-51.39c-14.79-9.24-33.42,0.44-36.32,17.73c-1.98,11.8,3.65,20.23,13.09,26.54
		C573.39,415.12,586.63,423.86,601.24,433.56z"/>
	<path class="st14" d="M746.55,158.74c-13.76,0.04-24.98-10.91-25.16-24.54c-0.18-13.94,11.29-25.32,25.38-25.17
		c13.85,0.14,24.7,11.15,24.63,24.98C771.33,147.86,760.43,158.71,746.55,158.74z"/>
	<path class="st15" d="M646.2,158.7c-13.83-0.12-24.95-11.27-24.86-24.93c0.09-14.06,11.55-24.97,25.94-24.71
		c13.69,0.25,24.7,11.71,24.37,25.36C671.32,148.15,660.13,158.82,646.2,158.7z"/>
	<path class="st16" d="M571.37,133.83c0.02,14.11-10.44,24.74-24.48,24.87c-14.21,0.13-25.29-10.97-25.14-25.18
		c0.15-13.74,11.2-24.54,25.03-24.46C560.83,109.15,571.35,119.74,571.37,133.83z"/>
	<path class="st17" d="M446.6,108.72c15.49,1.6,25.52,11.49,25.53,25.17c0,13.64-9.95,23.46-25.53,25.18c0,0,0.18-0.56,0.18-0.56
		c0.01-16.42,0.01-32.84,0.02-49.26L446.6,108.72z"/>
	<path class="st6" d="M445.04,494.5c2.8,2.85,1.63,6.45,1.63,9.71c0.09,51.3,0.09,102.6,0.1,153.89
		c-99.98,0.05-199.95,0.16-299.93,0.09c-15.06-0.01-24.37-10.01-24.4-25.7c-0.1-58.51-0.05-117.02-0.05-175.53
		c0-73.28-0.02-146.56,0.02-219.84c0.01-18.81,9.2-28.59,28.06-28.62c97.99-0.15,195.98-0.04,293.97-0.01c0.85,0,1.7,0.13,2.55,0.2
		c-0.07,55.56-0.14,111.12-0.22,166.68c-0.06,1.41-0.12,2.82-0.18,4.23c-1.13,1.61-2.49,3.1-3.36,4.84
		c-22.67,45.11-45.29,90.25-67.88,135.4c-1.9,3.81-3.41,7.79-3.61,12.14c-0.54,11.76,7.14,22.4,18.44,25.5
		c11.61,3.18,22.8-1.59,28.69-12.49C427.89,528.31,435.02,510.66,445.04,494.5z M321.42,508.22c4.97,0.37,9.25-0.95,13.19-3.44
		c15.67-9.9,16.31-30.78,0.82-42.02c-12.17-8.84-24.84-16.99-37.47-25.18c-4.65-3.01-5.37-4.66-0.05-7.96
		c12.3-7.63,24.35-15.69,36.25-23.93c13.33-9.22,16.41-24,8.01-36.3c-7.88-11.54-22.91-13.78-36.05-5.13
		c-23.25,15.29-46.48,30.61-69.58,46.12c-19.68,13.21-19.77,32.85-0.11,46.19c23.51,15.94,47.27,31.49,70.91,47.23
		C311.69,506.69,316.29,508.75,321.42,508.22z"/>
	<path class="st18" d="M446.79,109.25c-0.01,16.42-0.01,32.84-0.02,49.26c-62.73,0.08-125.47,0.17-188.2,0.22
		c-37.19,0.03-74.38,0.1-111.57-0.07c-12.83-0.06-22.8-8.78-24.43-20.54c-1.82-13.11,4.82-24.15,16.93-27.92
		c2.13-0.67,4.44-1.1,6.67-1.1C246.38,109.12,346.58,109.19,446.79,109.25z"/>
	<path class="st19" d="M601.24,433.56c-14.61-9.69-27.85-18.43-41.04-27.25c-9.45-6.31-15.07-14.74-13.09-26.54
		c2.9-17.29,21.52-26.97,36.32-17.73c26.24,16.39,52.14,33.42,77.32,51.39c15.93,11.37,14.42,30.08-2.17,42.03
		c-10.6,7.63-21.69,14.58-32.57,21.81c-13.24,8.81-26.43,17.71-39.77,26.38c-12.22,7.95-27.21,5.53-35-5.38
		c-7.94-11.12-5.29-26.94,6.64-35.42C571.74,453,586.04,443.78,601.24,433.56z"/>
	<path class="st19" d="M446.6,379.61c0.06-1.41,0.12-2.82,0.18-4.23c10.3-17.22,18.19-35.69,27.6-53.37
		c5.2-9.78,13.57-14.12,24.53-13.33c10.4,0.75,17.24,6.65,21.26,15.85c2.99,6.84,2.53,14.02-0.74,20.58
		c-23.21,46.6-46.6,93.11-69.96,139.63c-0.24,0.47-0.8,0.77-1.22,1.15c-2.56-2.93-1.45-6.48-1.46-9.75
		C446.65,443.96,446.64,411.78,446.6,379.61z"/>
	<path class="st20" d="M446.6,379.61c0.04,32.17,0.06,64.35,0.18,96.52c0.01,3.27-1.1,6.82,1.46,9.75c-1.07,2.87-2.14,5.74-3.2,8.62
		c-10.02,16.16-17.15,33.81-26.16,50.49c-5.89,10.9-17.08,15.67-28.69,12.49c-11.31-3.09-18.99-13.73-18.44-25.5
		c0.2-4.35,1.71-8.34,3.61-12.14c22.59-45.15,45.22-90.29,67.88-135.4C444.11,382.71,445.47,381.22,446.6,379.61z"/>
	<path class="st21" d="M321.42,508.22c-5.14,0.53-9.73-1.53-14.09-4.43c-23.64-15.74-47.41-31.29-70.91-47.23
		c-19.66-13.33-19.57-32.98,0.11-46.19c23.1-15.51,46.33-30.83,69.58-46.12c13.15-8.65,28.17-6.4,36.05,5.13
		c8.4,12.3,5.32,27.08-8.01,36.3c-11.91,8.24-23.95,16.3-36.25,23.93c-5.32,3.3-4.6,4.95,0.05,7.96
		c12.63,8.18,25.3,16.34,37.47,25.18c15.49,11.25,14.86,32.12-0.82,42.02C330.67,507.27,326.39,508.59,321.42,508.22z"/>
</g>
<g id="Layer_3" class="st0">
	<path class="st22" d="M405.43,686.42c-47.24-20.35-94.37-40.95-141.79-60.85c-11.57-4.85-18.96-11.96-24.06-23.51
		c-24.6-55.69-49.84-111.11-75-166.55c-3.27-7.22-3.71-14.14-1.29-21.65c23.71-73.73,47.33-147.48,70.9-221.25
		c2.03-6.34,5.36-11.55,10.16-16.17c56-53.87,111.93-107.8,167.76-161.85c3-2.91,6.89-3.78,10.03-6.14c1.99,0,3.99,0,5.98,0
		c-0.04,37.77-0.09,75.54-0.13,113.31l0.15,0.34c-14.91,1.14-22.24,9.59-22.27,26.05c-0.07,33.39,0,66.78-0.06,100.17
		c0,2.53,0.68,5.28-1.16,8.24c-13.57-10.54-26.67-20.81-39.88-30.94c-12.21-9.36-24.67-8.46-32.88,2.21
		c-8.21,10.67-5.97,23.19,5.95,32.47c20.84,16.2,41.64,32.46,62.69,48.38c4.09,3.09,5.5,6.28,5.41,11.22
		c-0.28,14.7-0.1,29.4-0.1,44.1c0,7.85,0,15.71,0,23.22c-2.4,0.83-3.28-0.23-4.2-0.95c-26.97-20.88-53.96-41.75-80.87-62.72
		c-5.94-4.62-12.27-7.68-19.94-6.12c-8.77,1.78-15.16,6.85-17.26,15.66c-2.25,9.49,0.6,17.6,8.6,23.77
		c35.67,27.55,71.25,55.23,106.95,82.73c4.41,3.39,7.09,6.74,6.89,12.91c-0.52,15.93-0.17,31.89-0.17,47.83c0,4.32,0,8.64,0,14.27
		c-3.02-2.11-4.64-3.16-6.16-4.33c-31.94-24.64-63.83-49.34-95.82-73.92c-9.11-7-20.04-6.63-28.01,0.52
		c-11.29,10.12-10.09,25.07,2.87,35.12c40.55,31.42,81.12,62.81,121.65,94.25c2.67,2.07,5.6,3.67,5.56,8.1
		C405.62,611.69,405.56,649.05,405.43,686.42z"/>
	<path class="st23" d="M427.98,121.75c0.04-37.77,0.09-75.54,0.13-113.31c1.99,0,3.99,0,5.98,0c14.05,7.12,23.55,19.58,34.58,30.11
		c47.74,45.55,95.04,91.55,142.57,137.32c4.97,4.79,8.41,10.23,10.52,16.84c23.6,73.93,47.31,147.83,71.09,221.71
		c2.26,7.02,1.96,13.53-1.08,20.24c-25.99,57.34-51.93,114.7-77.74,172.12c-3.46,7.7-8.72,12.82-16.54,16.16
		c-48.97,20.89-97.83,42.03-146.73,63.09c-0.1-33.13,0.45-66.28-0.63-99.37c-0.4-12.18,3.75-19.29,13.2-26.38
		c38.39-28.84,76.18-58.48,114.13-87.9c11.64-9.03,14.17-22.09,6.49-31.95c-8.56-10.98-21.65-12.22-33.54-3.03
		c-25.19,19.48-50.32,39.04-75.51,58.53c-7.73,5.98-15.55,11.83-24.42,18.57c0-23,0.08-44.15-0.08-65.31
		c-0.03-3.89,2.18-5.8,4.78-7.81c36.02-27.85,72.03-55.73,108.06-83.57c10.86-8.39,13.51-22.41,6.03-32.23
		c-7.83-10.27-21.33-11.75-32.45-3.23c-20.33,15.59-40.51,31.39-60.79,47.06c-8.12,6.28-16.32,12.45-25.56,19.5
		c0-23.77,0.25-45.68-0.16-67.58c-0.12-6.21,2-9.93,6.82-13.56c20.87-15.71,41.55-31.68,62.11-47.79
		c11.34-8.88,13.18-22.23,5.06-32.92c-7.24-9.54-21.04-10.61-32.01-2.3c-9.12,6.91-17.95,14.21-27.17,20.98
		c-4.62,3.39-8.5,8.02-14.65,10.16c0-36.75,0.05-72.86-0.03-108.98C450.41,131.28,443.21,123.36,427.98,121.75z"/>
	<path class="st24" d="M427.98,121.75c15.23,1.61,22.43,9.53,22.47,25.18c0.08,36.11,0.03,72.23,0.03,108.98
		c6.15-2.14,10.03-6.77,14.65-10.16c9.22-6.76,18.06-14.06,27.17-20.98c10.96-8.31,24.76-7.24,32.01,2.3
		c8.12,10.69,6.28,24.04-5.06,32.92c-20.56,16.11-41.24,32.08-62.11,47.79c-4.82,3.63-6.94,7.35-6.82,13.56
		c0.41,21.9,0.16,43.81,0.16,67.58c9.25-7.05,17.44-13.23,25.56-19.5c20.27-15.67,40.45-31.46,60.79-47.06
		c11.12-8.53,24.62-7.05,32.45,3.23c7.48,9.82,4.83,23.84-6.03,32.23c-36.03,27.85-72.03,55.72-108.06,83.57
		c-2.6,2.01-4.81,3.92-4.78,7.81c0.16,21.15,0.08,42.3,0.08,65.31c8.88-6.74,16.7-12.59,24.42-18.57
		c25.18-19.49,50.31-39.05,75.51-58.53c11.89-9.19,24.98-7.95,33.54,3.03c7.68,9.85,5.16,22.92-6.49,31.95
		c-37.95,29.43-75.74,59.06-114.13,87.9c-9.44,7.09-13.59,14.2-13.2,26.38c1.08,33.09,0.53,66.24,0.63,99.37
		c-0.1,13.6-0.64,27.22-0.17,40.8c0.47,13.39-3.57,23.64-16.5,29.16c-1.99,0-3.99,0-5.98,0c0.01-211.3,0.01-422.61,0.02-633.91
		L427.98,121.75z"/>
	<path class="st25" d="M428.13,122.09c-0.01,211.3-0.01,422.61-0.02,633.91c-1.99,0-3.99,0-5.98,0c-12.99-6-16.79-16.67-16.34-30.21
		c0.43-13.11-0.2-26.25-0.36-39.37c0.14-37.36,0.2-74.73,0.5-112.09c0.04-4.43-2.9-6.03-5.56-8.1
		c-40.54-31.43-81.11-62.82-121.65-94.25c-12.96-10.05-14.16-25.01-2.87-35.12c7.98-7.15,18.9-7.52,28.01-0.52
		c31.99,24.58,63.88,49.28,95.82,73.92c1.52,1.17,3.14,2.22,6.16,4.33c0-5.63,0-9.95,0-14.27c0-15.95-0.35-31.91,0.17-47.83
		c0.2-6.17-2.48-9.51-6.89-12.91c-35.71-27.5-71.28-55.18-106.95-82.73c-8-6.18-10.86-14.29-8.6-23.77
		c2.09-8.81,8.48-13.88,17.26-15.66c7.67-1.56,14.01,1.5,19.94,6.12c26.91,20.96,53.9,41.83,80.87,62.72
		c0.93,0.72,1.8,1.79,4.2,0.95c0-7.52,0-15.37,0-23.22c0-14.7-0.18-29.41,0.1-44.1c0.09-4.94-1.32-8.13-5.41-11.22
		c-21.06-15.91-41.85-32.17-62.69-48.38c-11.93-9.27-14.16-21.8-5.95-32.47c8.21-10.67,20.66-11.57,32.88-2.21
		c13.21,10.13,26.31,20.4,39.88,30.94c1.84-2.96,1.16-5.71,1.16-8.24c0.06-33.39-0.01-66.78,0.06-100.17
		C405.89,131.68,413.22,123.23,428.13,122.09z"/>
</g>
<g id="Layer_4">
	<path class="st26" d="M314.8,435.89c-0.01-27.03-0.1-54.05-0.03-81.08c0.08-30.24,0.08-60.48,0.64-90.7
		c0.12-6.75-1.93-8.28-8.25-7.98c-11.04,0.52-22.13-0.02-33.19,0.19c-9.85,0.19-17.38-3.7-21.52-12.57
		c-4.2-8.99-1.71-17.17,4.63-24.51c30.69-35.53,61.32-71.11,91.97-106.68c25.02-29.04,50.13-58.01,74.96-87.23
		c4.43-5.21,9.53-8.86,15.71-11.33c0.98,0,1.97,0,2.95,0c1.82,2.9,1.44,6.15,1.44,9.32c0,233.87,0.01,467.75-0.04,701.62
		c0,2.61,0.86,5.44-1.11,7.81c-0.2-2.2-0.19-4.44-0.62-6.6c-11.59-57.55-44.05-97.9-98.88-119.75
		c13.37-17.3,23.22-36.03,25.91-58.24c3.69-30.41-3.2-57.69-21.54-82.29C338.72,453.66,326.79,444.79,314.8,435.89z"/>
	<path class="st27" d="M442.96,732.75c1.98-2.37,1.11-5.2,1.11-7.81c0.04-233.87,0.04-467.75,0.04-701.62
		c0-3.18,0.38-6.42-1.44-9.32c1.97,0,3.94,0,5.9,0c11.07,4.31,17.17,14.14,24.41,22.51c52.41,60.58,104.65,121.32,156.93,182.01
		c6.32,7.33,9.83,15.45,5.36,24.99c-4.47,9.53-12.4,13.23-22.76,13.01c-13.27-0.28-26.56,0.13-39.83-0.16
		c-4.9-0.11-6.18,1.53-6.17,6.32c0.19,59.26,0.18,118.52,0.23,177.78c-1.5,1.26-2.93,2.6-4.5,3.76
		c-40.06,29.6-55.96,84.44-35.65,132.39c4.64,10.95,11.89,20.2,18.05,30.17c-45.38,17.79-76.22,49.53-92.3,95.66
		c-4.22,12.12-5.95,24.67-8.09,37.19C443.41,737.42,442.54,735.21,442.96,732.75z"/>
	<path class="st28" d="M442.96,732.75c-0.42,2.45,0.45,4.66,1.3,6.87c-0.11,3.63-0.23,7.27-0.34,10.9
		c-53.71,0-107.43-0.02-161.14,0.05c-2.8,0-5.94-1.12-8.37,1.42c-4.92,0-9.84,0-14.76,0c0.04-0.48,0.01-0.97-0.07-1.44
		c0.02-35.4,0.04-70.79,0.06-106.19c12.74-0.62,25.21-2.66,37.32-6.8c18.29-6.25,33.1-17.65,46.5-31.17
		c54.83,21.86,87.29,62.2,98.88,119.76C442.77,728.31,442.76,730.55,442.96,732.75z"/>
	<path class="st29" d="M713.98,607.18c47.31,18.76,78.25,52.64,93.05,101.22c2.58,8.46,4.11,17.25,6.12,25.88
		c-0.85,5.87,1.72,12.03-1.48,17.71c-2.43-2.55-5.57-1.42-8.38-1.42c-58.2-0.07-116.4-0.06-174.6-0.07
		c-0.02-35.34-0.04-70.68-0.06-106.02c28.77-1.15,54.24-10.54,75.83-29.99C707.39,611.86,709.04,607.28,713.98,607.18z"/>
	<path class="st30" d="M628.64,644.48c0.02,35.34,0.04,70.68,0.06,106.02c-0.02,0.5-0.03,1-0.05,1.49c-5.41,0-10.82,0-16.24,0
		c-2.16-2.44-5.05-1.43-7.62-1.43c-50.52-0.06-101.04-0.06-151.56,0c-2.56,0-5.46-1.04-7.61,1.43c-0.49,0-0.98,0-1.48,0
		c-0.08-0.49-0.16-0.98-0.24-1.47c0.11-3.64,0.23-7.28,0.34-10.9c2.14-12.51,3.86-25.06,8.09-37.18
		c16.08-46.13,46.92-77.87,92.3-95.66c3.17,1.14,4.92,3.96,7.23,6.11c21.62,20.23,47.01,31.1,76.83,30.98L628.64,644.48z"/>
	<path class="st31" d="M259.63,644.37c-0.02,35.4-0.04,70.79-0.06,106.19c-58.68-0.01-117.37-0.03-176.05,0
		c-2.35,0-4.98-0.84-6.9,1.44c-3.19-5.68-0.63-11.84-1.48-17.71c3.41-11.63,5.01-23.71,9.25-35.14
		c16.51-44.41,47.12-74.87,90.92-92.39c4.89,1.75,7.45,6.27,11.13,9.45c18.01,15.54,38.47,25.24,62.49,26.67
		C252.27,645.07,256.12,643.52,259.63,644.37z"/>
	<path class="st32" d="M76.63,752c1.92-2.28,4.55-1.44,6.9-1.44c58.69-0.03,117.37-0.01,176.05,0c0.08,0.48,0.11,0.96,0.07,1.44
		C198.64,752,137.63,752,76.63,752z"/>
	<path class="st33" d="M628.65,752c0.02-0.5,0.03-1,0.05-1.49c58.2,0.01,116.4-0.01,174.6,0.07c2.81,0,5.95-1.13,8.38,1.42
		C750.67,752,689.66,752,628.65,752z"/>
	<path class="st34" d="M443.92,750.53c0.08,0.49,0.16,0.98,0.24,1.47c-56.58,0-113.16,0-169.74,0c2.43-2.55,5.56-1.42,8.37-1.42
		C336.49,750.51,390.2,750.53,443.92,750.53z"/>
	<path class="st35" d="M445.63,752c2.15-2.47,5.05-1.43,7.61-1.43c50.52-0.06,101.04-0.06,151.56,0c2.57,0,5.46-1.01,7.62,1.43
		C556.82,752,501.22,752,445.63,752z"/>
	<path class="st36" d="M713.98,607.18c-4.94,0.1-6.59,4.67-9.52,7.31c-21.59,19.45-47.06,28.84-75.83,29.99c0,0,0.06-0.61,0.06-0.61
		c-0.01-21.36-0.06-42.73-0.04-64.09c0.05-52.55,0.13-105.1,0.2-157.65c42.68,1.18,75.93,19.72,96.47,56.98
		c22.34,40.52,19.12,80.9-7.01,119.3C716.52,601.07,712.83,602.99,713.98,607.18z"/>
	<path class="st37" d="M628.86,422.13c-0.07,52.55-0.15,105.1-0.2,157.65c-0.02,21.36,0.02,42.73,0.04,64.09
		c-29.82,0.11-55.2-10.75-76.83-30.98c-2.3-2.15-4.06-4.98-7.23-6.11c-6.15-9.97-13.4-19.22-18.04-30.17
		c-20.32-47.95-4.41-102.79,35.65-132.39c1.57-1.16,3-2.5,4.5-3.76c13.47-8.09,27.68-14.44,43.3-16.88
		C616.23,422.61,622.5,421.48,628.86,422.13z"/>
	<path class="st38" d="M248.94,642.88c-24.01-1.43-44.48-11.13-62.49-26.67c-3.68-3.18-6.24-7.7-11.13-9.45
		c-8.94-12.02-17.49-24.47-21.53-38.96c-10.86-38.94-5.52-75.02,21.08-106.68c18.95-22.57,43.19-35.23,72.5-38.36
		c4.11-0.44,8.1-1.9,12.32-1.32c-0.01,70.25-0.03,140.5-0.04,210.74C259.65,642.6,259.65,642.6,248.94,642.88z"/>
	<path class="st39" d="M248.94,642.88c10.71-0.28,10.71-0.28,10.71-10.7c0.01-70.25,0.03-140.5,0.04-210.74
		c19.54,0.38,37.78,5.68,55.11,14.45c11.99,8.9,23.92,17.77,33.02,29.98c18.34,24.6,25.23,51.88,21.54,82.29
		c-2.69,22.21-12.54,40.94-25.91,58.24c-13.4,13.52-28.21,24.92-46.5,31.17c-12.11,4.14-24.58,6.18-37.32,6.8
		C256.12,643.52,252.27,645.07,248.94,642.88z"/>
</g>
</svg>
