<?xml version="1.0" encoding="utf-8"?>
<!-- Generator: Adobe Illustrator 23.0.6, SVG Export Plug-In . SVG Version: 6.00 Build 0)  -->
<svg version="1.1" id="Layer_1" xmlns="http://www.w3.org/2000/svg" xmlns:xlink="http://www.w3.org/1999/xlink" x="0px" y="0px"
	 viewBox="0 0 897 768" style="enable-background:new 0 0 897 768;" xml:space="preserve">
<style type="text/css">
	.st0{fill:#E53950;}
	.st1{fill:#FDD743;}
	.st2{fill:#453D83;}
	.st3{fill:#5F56AF;}
	.st4{fill:#FE9F01;}
	.st5{fill:#6AA9FE;}
	.st6{fill:#FE7A4A;}
	.st7{fill:#7ED7F5;}
	.st8{fill:#A6CFD6;}
	.st9{fill:#D3E5FC;}
</style>
<path class="st0" d="M702.21,13.53c9.98,1.05,14.66,8.37,18.85,16.12c30.53,56.56,61.7,112.75,94.94,167.79
	c13.85,22.93,30,44.55,40.68,69.32c5.99,13.89,10.56,28.21,12.01,43.39c0.09,0.94,0.96,1.8,1.47,2.7c0,13.44,0,26.89,0,40.33
	c-4.84,13.24-5.89,27.46-11.39,40.62c-25.69,61.47-71.64,97.18-136.78,109.16c-8.36,1.54-16.67,1.32-25.03,1.59
	c0.01-159.82,0.01-319.64,0.02-479.45c0-2.24,0.15-4.49-0.01-6.72C696.7,14.48,699.13,13.7,702.21,13.53z"/>
<path class="st1" d="M30,312.86c3.3-5.41,2.91-11.74,4.18-17.62c5.67-26.27,19.59-48.54,33.53-70.85
	c39.58-63.35,76.11-128.45,111.31-194.32c5.19-9.7,11.58-17.19,23.73-16.81c0.16,2.51,0.44,5.02,0.44,7.52
	c0.01,161.17-0.01,322.33-0.02,483.5c-62.36-0.81-110.35-28.31-145.43-79.06c-14.37-20.79-21.97-44.43-25.99-69.27
	c-0.26-1.62-0.06-3.41-1.76-4.45C30,338.62,30,325.74,30,312.86z"/>
<path class="st2" d="M870.16,684.21c-6.1,13.77-17.05,18.2-31.6,18.16c-104.81-0.29-209.62-0.21-314.43-0.25
	c-0.02-16.57-0.04-33.14-0.07-49.71c106.87-0.03,213.73-0.01,320.6-0.18c12.58-0.02,19.52,7.43,25.5,16.86
	C870.16,674.13,870.16,679.17,870.16,684.21z"/>
<path class="st3" d="M376.18,701.26c-17.32,0.1-34.64,0.27-51.95,0.28c-87.18,0.03-174.36-0.24-261.54,0.25
	C47.77,701.87,36.64,698,30,684.21c0-5.04,0-10.08,0-15.12c7.93-14.38,20.59-17.03,36.05-16.96c99.7,0.49,199.4,0.26,299.1,0.28
	c3.64,0,7.28,0.1,10.92,0.15C376.1,668.79,376.14,685.02,376.18,701.26z"/>
<path class="st4" d="M203.18,504.29c0.01-161.17,0.03-322.33,0.02-483.5c0-2.51-0.29-5.01-0.44-7.52
	c13.03-2.1,20.07,5.66,25.6,15.71c22.78,41.38,45.39,82.86,68.33,124.15c9.62,17.31,19.44,34.53,30.49,50.99
	c8.15,13.65,16.27,27.31,24.46,40.94c28.32,47.15,31.75,96.64,13.73,148.04c-8.08,23.05-22.12,42.46-38.08,60.61
	c-15.76,14.28-32.55,27.13-52.12,35.78C252.28,499.62,228.52,505.9,203.18,504.29z"/>
<path class="st5" d="M450.22,12.57c11.85-0.34,18.86,6.27,24.21,16.05c23.58,43.12,47.22,86.2,71.15,129.13
	c8.83,15.84,17.67,31.7,28,46.65c8.69,14.61,17.56,29.11,26.03,43.85c26.8,46.67,29.63,95.36,11.66,145.62
	c-8.11,22.69-21.85,41.89-37.86,59.61c-14.97,13.94-31.07,26.27-49.78,34.9c-23.34,10.77-47.59,17.24-73.53,15.99
	c-0.01-92.6-0.03-185.19-0.02-277.79C450.1,155.24,450.18,83.91,450.22,12.57z"/>
<path class="st6" d="M573.42,453.48c16.01-17.71,29.75-36.91,37.86-59.61c17.97-50.26,15.14-98.95-11.66-145.62
	c-8.46-14.74-17.34-29.25-26.03-43.85c34.65-57.32,66.76-116.08,98.3-175.16c7.35-13.77,17.81-19.12,30.33-15.71
	c-3.09,0.17-5.52,0.95-5.24,4.85c0.16,2.23,0.01,4.48,0.01,6.72c-0.01,159.82-0.01,319.63-0.02,479.45
	C648.59,504.95,608.03,486.41,573.42,453.48z"/>
<path class="st7" d="M450.22,12.57c-0.05,71.34-0.12,142.67-0.14,214.01c-0.02,92.6,0.01,185.2,0.02,277.79
	c-44.56,0.54-82.68-15.64-115.89-44.6c-2.31-2.02-4.62-4.04-6.93-6.06c15.96-18.15,30-37.56,38.08-60.61
	c18.02-51.4,14.6-100.89-13.73-148.04c-8.19-13.63-16.31-27.3-24.46-40.94c18.67-29.22,35.43-59.56,52.32-89.81
	c15.81-28.32,31.07-56.95,46.33-85.56C431.15,18.78,438.73,12.9,450.22,12.57z"/>
<path class="st8" d="M524.06,652.4c0.02,16.57,0.04,33.14,0.07,49.71c-0.04,8.1,0.02,16.21-0.15,24.31
	c-0.3,14.38-10.55,24.7-25.06,24.85c-16.21,0.17-32.42-0.04-48.63-0.09c-0.09-65.47-0.17-130.94-0.25-196.41
	c6.66-1.77,11.88,1.11,16.32,5.51c17.11,16.95,34.14,33.98,51.08,51.09c4.49,4.53,6.77,10.07,6.61,16.66
	C523.86,636.16,524.04,644.28,524.06,652.4z"/>
<path class="st9" d="M450.04,554.78c0.08,65.47,0.17,130.94,0.25,196.41c-16.41,0.06-32.82,0.28-49.22,0.15
	c-13.28-0.11-24.69-11.72-24.89-25.05c-0.13-8.34-0.01-16.69,0-25.03c-0.04-16.23-0.07-32.47-0.11-48.7
	c0.51-41.11-3.65-30.47,25.36-59.97c9.97-10.14,20.14-20.09,30.15-30.2C436.69,557.22,442.38,553.67,450.04,554.78z"/>
</svg>
