<?xml version="1.0" encoding="utf-8"?>
<!-- Generator: Adobe Illustrator 23.0.6, SVG Export Plug-In . SVG Version: 6.00 Build 0)  -->
<svg version="1.1" xmlns="http://www.w3.org/2000/svg" xmlns:xlink="http://www.w3.org/1999/xlink" x="0px" y="0px"
	 viewBox="0 0 897 768" style="enable-background:new 0 0 897 768;" xml:space="preserve">
<style type="text/css">
	.st0{display:none;}
	.st1{display:inline;fill:#E53950;}
	.st2{display:inline;fill:#FDD743;}
	.st3{display:inline;fill:#453D83;}
	.st4{display:inline;fill:#5F56AF;}
	.st5{display:inline;fill:#FE9F01;}
	.st6{display:inline;fill:#6AA9FE;}
	.st7{display:inline;fill:#FE7A4A;}
	.st8{display:inline;fill:#7ED7F5;}
	.st9{display:inline;fill:#A6CFD6;}
	.st10{display:inline;fill:#D3E5FC;}
	.st11{display:inline;fill:#D4E7FD;}
	.st12{display:inline;fill:#ECF4FE;}
	.st13{display:inline;fill:#4895FE;}
	.st14{display:inline;fill:#E53C52;}
	.st15{display:inline;fill:#4A96FE;}
	.st16{display:inline;fill:#4995FE;}
	.st17{display:inline;fill:#474085;}
	.st18{display:inline;fill:#5F55AE;}
	.st19{display:inline;fill:#D3E6FD;}
	.st20{display:inline;fill:#EAF3FE;}
	.st21{display:inline;fill:#EBF3FE;}
	.st22{display:inline;fill:#FECB30;}
	.st23{display:inline;fill:#E7A037;}
	.st24{display:inline;fill:#802912;}
	.st25{display:inline;fill:#9A532E;}
	.st26{display:inline;fill:#C3E73A;}
	.st27{display:inline;fill:#90D860;}
	.st28{display:inline;fill:#4793FE;}
	.st29{display:inline;fill:#D10041;}
	.st30{display:inline;fill:#FE0059;}
	.st31{display:inline;fill:#5ECAF0;}
	.st32{display:inline;fill:#80D5F3;}
	.st33{display:inline;fill:#DB0C4E;}
	.st34{display:inline;fill:#54A1FC;}
	.st35{display:inline;fill:#FE377C;}
	.st36{display:inline;fill:#DC9366;}
	.st37{display:inline;fill:#E4AD8B;}
	.st38{display:inline;fill:#FEEBE1;}
	.st39{display:inline;fill:#FDDCCC;}
	.st40{display:inline;fill:#61729B;}
	.st41{display:inline;fill:#47568C;}
	.st42{display:inline;fill:#6AA8FE;}
	.st43{display:inline;fill:#D5E7FD;}
	.st44{display:inline;fill:#4995FD;}
	.st45{display:inline;fill:#2B386E;}
	.st46{display:inline;fill:#B4DAFE;}
	.st47{display:inline;fill:#48578D;}
	.st48{display:inline;fill:#B5DAFE;}
	.st49{display:inline;fill:#D2E5FC;}
	.st50{display:inline;fill:#FEFEFE;}
	.st51{display:inline;fill:#FE435B;}
	.st52{display:inline;fill:#FDD744;}
	.st53{display:inline;fill:#FE7B4A;}
	.st54{display:inline;fill:#FE475E;}
	.st55{display:inline;fill:#F9BE31;}
	.st56{display:inline;}
	.st57{fill:#FE9F01;}
	.st58{fill:#FEFEFE;}
	.st59{fill:#F67E01;}
	.st60{fill:#B5D9FE;}
	.st61{fill:#D6E8FE;}
	.st62{fill:#D5E8FE;}
	.st63{fill:#FDFDFE;}
	.st64{fill:#FED92D;}
	.st65{fill:#F67F02;}
	.st66{fill:#FEFDFC;}
	.st67{display:inline;fill:#FE9C21;}
	.st68{display:inline;fill:#FEDD46;}
	.st69{display:inline;fill:#013379;}
	.st70{display:inline;fill:#01439A;}
	.st71{display:inline;fill:#FE9D22;}
	.st72{display:inline;fill:#0089DE;}
	.st73{display:inline;fill:#3AAEFE;}
	.st74{display:inline;fill:#E0EFFE;}
	.st75{display:inline;fill:#6258AD;}
	.st76{display:inline;fill:#494183;}
	.st77{display:inline;fill:#FEB454;}
	.st78{display:inline;fill:#FEE178;}
	.st79{display:inline;fill:#BDDBEF;}
	.st80{display:inline;fill:#8BB8FE;}
	.st81{display:inline;fill:#453D80;}
	.st82{display:inline;fill:#CF0552;}
	.st83{display:inline;fill:#FB637A;}
	.st84{fill:#333E73;}
	.st85{fill:#4D578C;}
	.st86{fill:#FE6699;}
	.st87{fill:#FE99BA;}
	.st88{fill:#FEBEB2;}
	.st89{fill:#FDD847;}
	.st90{fill:#FDD744;}
	.st91{fill:#FED4CB;}
	.st92{fill:#1F2859;}
	.st93{fill:#FEAA99;}
	.st94{fill:#FEBFB3;}
</style>
<g id="Layer_1" class="st0">
	<path class="st1" d="M702.21,13.53c9.98,1.05,14.66,8.37,18.85,16.12c30.53,56.56,61.7,112.75,94.94,167.79
		c13.85,22.93,30,44.55,40.68,69.32c5.99,13.89,10.56,28.21,12.01,43.39c0.09,0.94,0.96,1.8,1.47,2.7c0,13.44,0,26.89,0,40.33
		c-4.84,13.24-5.89,27.46-11.39,40.62c-25.69,61.47-71.64,97.18-136.78,109.16c-8.36,1.54-16.67,1.32-25.03,1.59
		c0.01-159.82,0.01-319.64,0.02-479.45c0-2.24,0.15-4.49-0.01-6.72C696.7,14.48,699.13,13.7,702.21,13.53z"/>
	<path class="st2" d="M30,312.86c3.3-5.41,2.91-11.74,4.18-17.62c5.67-26.27,19.59-48.54,33.53-70.85
		c39.58-63.35,76.11-128.45,111.31-194.32c5.19-9.7,11.58-17.19,23.73-16.81c0.16,2.51,0.44,5.02,0.44,7.52
		c0.01,161.17-0.01,322.33-0.02,483.5c-62.36-0.81-110.35-28.31-145.43-79.06c-14.37-20.79-21.97-44.43-25.99-69.27
		c-0.26-1.62-0.06-3.41-1.76-4.45C30,338.62,30,325.74,30,312.86z"/>
	<path class="st3" d="M870.16,684.21c-6.1,13.77-17.05,18.2-31.6,18.16c-104.81-0.29-209.62-0.21-314.43-0.25
		c-0.02-16.57-0.04-33.14-0.07-49.71c106.87-0.03,213.73-0.01,320.6-0.18c12.58-0.02,19.52,7.43,25.5,16.86
		C870.16,674.13,870.16,679.17,870.16,684.21z"/>
	<path class="st4" d="M376.18,701.26c-17.32,0.1-34.64,0.27-51.95,0.28c-87.18,0.03-174.36-0.24-261.54,0.25
		C47.77,701.87,36.64,698,30,684.21c0-5.04,0-10.08,0-15.12c7.93-14.38,20.59-17.03,36.05-16.96c99.7,0.49,199.4,0.26,299.1,0.28
		c3.64,0,7.28,0.1,10.92,0.15C376.1,668.79,376.14,685.02,376.18,701.26z"/>
	<path class="st5" d="M203.18,504.29c0.01-161.17,0.03-322.33,0.02-483.5c0-2.51-0.29-5.01-0.44-7.52
		c13.03-2.1,20.07,5.66,25.6,15.71c22.78,41.38,45.39,82.86,68.33,124.15c9.62,17.31,19.44,34.53,30.49,50.99
		c8.15,13.65,16.27,27.31,24.46,40.94c28.32,47.15,31.75,96.64,13.73,148.04c-8.08,23.05-22.12,42.46-38.08,60.61
		c-15.76,14.28-32.55,27.13-52.12,35.78C252.28,499.62,228.52,505.9,203.18,504.29z"/>
	<path class="st6" d="M450.22,12.57c11.85-0.34,18.86,6.27,24.21,16.05c23.58,43.12,47.22,86.2,71.15,129.13
		c8.83,15.84,17.67,31.7,28,46.65c8.69,14.61,17.56,29.11,26.03,43.85c26.8,46.67,29.63,95.36,11.66,145.62
		c-8.11,22.69-21.85,41.89-37.86,59.61c-14.97,13.94-31.07,26.27-49.78,34.9c-23.34,10.77-47.59,17.24-73.53,15.99
		c-0.01-92.6-0.03-185.19-0.02-277.79C450.1,155.24,450.18,83.91,450.22,12.57z"/>
	<path class="st7" d="M573.42,453.48c16.01-17.71,29.75-36.91,37.86-59.61c17.97-50.26,15.14-98.95-11.66-145.62
		c-8.46-14.74-17.34-29.25-26.03-43.85c34.65-57.32,66.76-116.08,98.3-175.16c7.35-13.77,17.81-19.12,30.33-15.71
		c-3.09,0.17-5.52,0.95-5.24,4.85c0.16,2.23,0.01,4.48,0.01,6.72c-0.01,159.82-0.01,319.63-0.02,479.45
		C648.59,504.95,608.03,486.41,573.42,453.48z"/>
	<path class="st8" d="M450.22,12.57c-0.05,71.34-0.12,142.67-0.14,214.01c-0.02,92.6,0.01,185.2,0.02,277.79
		c-44.56,0.54-82.68-15.64-115.89-44.6c-2.31-2.02-4.62-4.04-6.93-6.06c15.96-18.15,30-37.56,38.08-60.61
		c18.02-51.4,14.6-100.89-13.73-148.04c-8.19-13.63-16.31-27.3-24.46-40.94c18.67-29.22,35.43-59.56,52.32-89.81
		c15.81-28.32,31.07-56.95,46.33-85.56C431.15,18.78,438.73,12.9,450.22,12.57z"/>
	<path class="st9" d="M524.06,652.4c0.02,16.57,0.04,33.14,0.07,49.71c-0.04,8.1,0.02,16.21-0.15,24.31
		c-0.3,14.38-10.55,24.7-25.06,24.85c-16.21,0.17-32.42-0.04-48.63-0.09c-0.09-65.47-0.17-130.94-0.25-196.41
		c6.66-1.77,11.88,1.11,16.32,5.51c17.11,16.95,34.14,33.98,51.08,51.09c4.49,4.53,6.77,10.07,6.61,16.66
		C523.86,636.16,524.04,644.28,524.06,652.4z"/>
	<path class="st10" d="M450.04,554.78c0.08,65.47,0.17,130.94,0.25,196.41c-16.41,0.06-32.82,0.28-49.22,0.15
		c-13.28-0.11-24.69-11.72-24.89-25.05c-0.13-8.34-0.01-16.69,0-25.03c-0.04-16.23-0.07-32.47-0.11-48.7
		c0.51-41.11-3.65-30.47,25.36-59.97c9.97-10.14,20.14-20.09,30.15-30.2C436.69,557.22,442.38,553.67,450.04,554.78z"/>
</g>
<g id="Layer_2" class="st0">
	<path class="st11" d="M873,27.3c0,237.58,0,475.15,0,712.73c-5.26,13.14-15.14,18.8-29.11,18.79c-132.37-0.1-264.74-0.08-397.1-0.1
		c-0.07-33.38-0.13-66.76-0.2-100.14c3.69-0.07,7.38-0.21,11.07-0.21c95.43-0.01,190.86,0.01,286.29-0.04
		c17.79-0.01,27.26-9.22,28.09-26.97c0.09-1.98,0.03-3.98,0.03-5.96c0-128.09,0-256.18,0-384.27c0-23.95-8.96-32.86-33.02-32.87
		c-97.42-0.04-194.83-0.08-292.25-0.12c-0.07-16.36-0.13-32.72-0.2-49.07c15.58-1.72,25.54-11.54,25.53-25.18
		c0-13.68-10.03-23.56-25.53-25.17c0.06-33.37,0.13-66.75,0.19-100.12C578.3,8.59,709.82,8.66,841.33,8.45
		C856.08,8.43,867.31,12.84,873,27.3z M746.55,158.74c13.88-0.04,24.78-10.88,24.85-24.74c0.07-13.83-10.78-24.83-24.63-24.98
		c-14.09-0.15-25.56,11.23-25.38,25.17C721.57,147.83,732.79,158.78,746.55,158.74z M646.2,158.7
		c13.93,0.12,25.12-10.55,25.45-24.28c0.33-13.65-10.68-25.12-24.37-25.36c-14.4-0.26-25.86,10.65-25.94,24.71
		C621.25,147.43,632.37,158.59,646.2,158.7z M571.37,133.83c-0.02-14.09-10.54-24.68-24.6-24.77
		c-13.83-0.08-24.89,10.72-25.03,24.46c-0.15,14.21,10.93,25.31,25.14,25.18C560.93,158.57,571.4,147.94,571.37,133.83z"/>
	<path class="st12" d="M446.79,8.61c-0.06,33.37-0.13,66.75-0.19,100.12l0.19,0.53c-100.21-0.07-200.41-0.14-300.62-0.15
		c-2.23,0-4.53,0.44-6.67,1.1c-12.11,3.78-18.74,14.81-16.93,27.92c1.63,11.76,11.59,20.48,24.43,20.54
		c37.19,0.18,74.38,0.1,111.57,0.07c62.73-0.05,125.47-0.15,188.2-0.22l-0.18,0.56c0.07,16.36,0.13,32.72,0.2,49.07
		c0,0,0.2,0.55,0.2,0.55c-0.85-0.07-1.7-0.2-2.55-0.2c-97.99-0.03-195.98-0.14-293.97,0.01c-18.85,0.03-28.05,9.81-28.06,28.62
		c-0.03,73.28-0.02,146.56-0.02,219.84c0,58.51-0.05,117.02,0.05,175.53c0.03,15.69,9.34,25.69,24.4,25.7
		c99.98,0.07,199.95-0.04,299.93-0.09c0,0-0.19,0.47-0.19,0.47c0.07,33.38,0.13,66.76,0.2,100.14c-131,0.02-262.01-0.05-393.01,0.19
		c-14.52,0.03-26.13-3.84-33.32-17.18c0-238.71,0-477.43,0-716.14C26.55,14.44,35.9,8.57,48.66,8.57
		C181.37,8.56,314.08,8.59,446.79,8.61z"/>
	<path class="st13" d="M446.79,208.15c97.42,0.04,194.83,0.08,292.25,0.12c24.06,0.01,33.02,8.92,33.02,32.87
		c0.01,128.09,0,256.18,0,384.27c0,1.99,0.07,3.98-0.03,5.96c-0.83,17.74-10.3,26.96-28.09,26.97
		c-95.43,0.05-190.86,0.02-286.29,0.04c-3.69,0-7.38,0.14-11.07,0.21c0,0,0.19-0.47,0.19-0.47c-0.02-51.3-0.01-102.6-0.1-153.89
		c-0.01-3.27,1.17-6.86-1.63-9.71c1.07-2.87,2.14-5.74,3.2-8.62c0.41-0.38,0.98-0.68,1.22-1.15
		c23.36-46.52,46.75-93.03,69.96-139.63c3.27-6.56,3.73-13.74,0.74-20.58c-4.02-9.2-10.86-15.1-21.26-15.85
		c-10.96-0.79-19.33,3.55-24.53,13.33c-9.4,17.68-17.3,36.15-27.59,53.37c0.07-55.56,0.14-111.12,0.22-166.68L446.79,208.15z
		 M601.24,433.56c-15.19,10.22-29.5,19.45-43.36,29.29c-11.93,8.47-14.58,24.29-6.64,35.42c7.79,10.91,22.77,13.33,35,5.38
		c13.34-8.67,26.52-17.57,39.77-26.38c10.88-7.24,21.97-14.18,32.57-21.81c16.59-11.95,18.1-30.66,2.17-42.03
		c-25.18-17.97-51.08-34.99-77.32-51.39c-14.79-9.24-33.42,0.44-36.32,17.73c-1.98,11.8,3.65,20.23,13.09,26.54
		C573.39,415.12,586.63,423.86,601.24,433.56z"/>
	<path class="st14" d="M746.55,158.74c-13.76,0.04-24.98-10.91-25.16-24.54c-0.18-13.94,11.29-25.32,25.38-25.17
		c13.85,0.14,24.7,11.15,24.63,24.98C771.33,147.86,760.43,158.71,746.55,158.74z"/>
	<path class="st15" d="M646.2,158.7c-13.83-0.12-24.95-11.27-24.86-24.93c0.09-14.06,11.55-24.97,25.94-24.71
		c13.69,0.25,24.7,11.71,24.37,25.36C671.32,148.15,660.13,158.82,646.2,158.7z"/>
	<path class="st16" d="M571.37,133.83c0.02,14.11-10.44,24.74-24.48,24.87c-14.21,0.13-25.29-10.97-25.14-25.18
		c0.15-13.74,11.2-24.54,25.03-24.46C560.83,109.15,571.35,119.74,571.37,133.83z"/>
	<path class="st17" d="M446.6,108.72c15.49,1.6,25.52,11.49,25.53,25.17c0,13.64-9.95,23.46-25.53,25.18c0,0,0.18-0.56,0.18-0.56
		c0.01-16.42,0.01-32.84,0.02-49.26L446.6,108.72z"/>
	<path class="st6" d="M445.04,494.5c2.8,2.85,1.63,6.45,1.63,9.71c0.09,51.3,0.09,102.6,0.1,153.89
		c-99.98,0.05-199.95,0.16-299.93,0.09c-15.06-0.01-24.37-10.01-24.4-25.7c-0.1-58.51-0.05-117.02-0.05-175.53
		c0-73.28-0.02-146.56,0.02-219.84c0.01-18.81,9.2-28.59,28.06-28.62c97.99-0.15,195.98-0.04,293.97-0.01c0.85,0,1.7,0.13,2.55,0.2
		c-0.07,55.56-0.14,111.12-0.22,166.68c-0.06,1.41-0.12,2.82-0.18,4.23c-1.13,1.61-2.49,3.1-3.36,4.84
		c-22.67,45.11-45.29,90.25-67.88,135.4c-1.9,3.81-3.41,7.79-3.61,12.14c-0.54,11.76,7.14,22.4,18.44,25.5
		c11.61,3.18,22.8-1.59,28.69-12.49C427.89,528.31,435.02,510.66,445.04,494.5z M321.42,508.22c4.97,0.37,9.25-0.95,13.19-3.44
		c15.67-9.9,16.31-30.78,0.82-42.02c-12.17-8.84-24.84-16.99-37.47-25.18c-4.65-3.01-5.37-4.66-0.05-7.96
		c12.3-7.63,24.35-15.69,36.25-23.93c13.33-9.22,16.41-24,8.01-36.3c-7.88-11.54-22.91-13.78-36.05-5.13
		c-23.25,15.29-46.48,30.61-69.58,46.12c-19.68,13.21-19.77,32.85-0.11,46.19c23.51,15.94,47.27,31.49,70.91,47.23
		C311.69,506.69,316.29,508.75,321.42,508.22z"/>
	<path class="st18" d="M446.79,109.25c-0.01,16.42-0.01,32.84-0.02,49.26c-62.73,0.08-125.47,0.17-188.2,0.22
		c-37.19,0.03-74.38,0.1-111.57-0.07c-12.83-0.06-22.8-8.78-24.43-20.54c-1.82-13.11,4.82-24.15,16.93-27.92
		c2.13-0.67,4.44-1.1,6.67-1.1C246.38,109.12,346.58,109.19,446.79,109.25z"/>
	<path class="st19" d="M601.24,433.56c-14.61-9.69-27.85-18.43-41.04-27.25c-9.45-6.31-15.07-14.74-13.09-26.54
		c2.9-17.29,21.52-26.97,36.32-17.73c26.24,16.39,52.14,33.42,77.32,51.39c15.93,11.37,14.42,30.08-2.17,42.03
		c-10.6,7.63-21.69,14.58-32.57,21.81c-13.24,8.81-26.43,17.71-39.77,26.38c-12.22,7.95-27.21,5.53-35-5.38
		c-7.94-11.12-5.29-26.94,6.64-35.42C571.74,453,586.04,443.78,601.24,433.56z"/>
	<path class="st19" d="M446.6,379.61c0.06-1.41,0.12-2.82,0.18-4.23c10.3-17.22,18.19-35.69,27.6-53.37
		c5.2-9.78,13.57-14.12,24.53-13.33c10.4,0.75,17.24,6.65,21.26,15.85c2.99,6.84,2.53,14.02-0.74,20.58
		c-23.21,46.6-46.6,93.11-69.96,139.63c-0.24,0.47-0.8,0.77-1.22,1.15c-2.56-2.93-1.45-6.48-1.46-9.75
		C446.65,443.96,446.64,411.78,446.6,379.61z"/>
	<path class="st20" d="M446.6,379.61c0.04,32.17,0.06,64.35,0.18,96.52c0.01,3.27-1.1,6.82,1.46,9.75c-1.07,2.87-2.14,5.74-3.2,8.62
		c-10.02,16.16-17.15,33.81-26.16,50.49c-5.89,10.9-17.08,15.67-28.69,12.49c-11.31-3.09-18.99-13.73-18.44-25.5
		c0.2-4.35,1.71-8.34,3.61-12.14c22.59-45.15,45.22-90.29,67.88-135.4C444.11,382.71,445.47,381.22,446.6,379.61z"/>
	<path class="st21" d="M321.42,508.22c-5.14,0.53-9.73-1.53-14.09-4.43c-23.64-15.74-47.41-31.29-70.91-47.23
		c-19.66-13.33-19.57-32.98,0.11-46.19c23.1-15.51,46.33-30.83,69.58-46.12c13.15-8.65,28.17-6.4,36.05,5.13
		c8.4,12.3,5.32,27.08-8.01,36.3c-11.91,8.24-23.95,16.3-36.25,23.93c-5.32,3.3-4.6,4.95,0.05,7.96
		c12.63,8.18,25.3,16.34,37.47,25.18c15.49,11.25,14.86,32.12-0.82,42.02C330.67,507.27,326.39,508.59,321.42,508.22z"/>
</g>
<g id="Layer_3" class="st0">
	<path class="st22" d="M405.43,686.42c-47.24-20.35-94.37-40.95-141.79-60.85c-11.57-4.85-18.96-11.96-24.06-23.51
		c-24.6-55.69-49.84-111.11-75-166.55c-3.27-7.22-3.71-14.14-1.29-21.65c23.71-73.73,47.33-147.48,70.9-221.25
		c2.03-6.34,5.36-11.55,10.16-16.17c56-53.87,111.93-107.8,167.76-161.85c3-2.91,6.89-3.78,10.03-6.14c1.99,0,3.99,0,5.98,0
		c-0.04,37.77-0.09,75.54-0.13,113.31l0.15,0.34c-14.91,1.14-22.24,9.59-22.27,26.05c-0.07,33.39,0,66.78-0.06,100.17
		c0,2.53,0.68,5.28-1.16,8.24c-13.57-10.54-26.67-20.81-39.88-30.94c-12.21-9.36-24.67-8.46-32.88,2.21
		c-8.21,10.67-5.97,23.19,5.95,32.47c20.84,16.2,41.64,32.46,62.69,48.38c4.09,3.09,5.5,6.28,5.41,11.22
		c-0.28,14.7-0.1,29.4-0.1,44.1c0,7.85,0,15.71,0,23.22c-2.4,0.83-3.28-0.23-4.2-0.95c-26.97-20.88-53.96-41.75-80.87-62.72
		c-5.94-4.62-12.27-7.68-19.94-6.12c-8.77,1.78-15.16,6.85-17.26,15.66c-2.25,9.49,0.6,17.6,8.6,23.77
		c35.67,27.55,71.25,55.23,106.95,82.73c4.41,3.39,7.09,6.74,6.89,12.91c-0.52,15.93-0.17,31.89-0.17,47.83c0,4.32,0,8.64,0,14.27
		c-3.02-2.11-4.64-3.16-6.16-4.33c-31.94-24.64-63.83-49.34-95.82-73.92c-9.11-7-20.04-6.63-28.01,0.52
		c-11.29,10.12-10.09,25.07,2.87,35.12c40.55,31.42,81.12,62.81,121.65,94.25c2.67,2.07,5.6,3.67,5.56,8.1
		C405.62,611.69,405.56,649.05,405.43,686.42z"/>
	<path class="st23" d="M427.98,121.75c0.04-37.77,0.09-75.54,0.13-113.31c1.99,0,3.99,0,5.98,0c14.05,7.12,23.55,19.58,34.58,30.11
		c47.74,45.55,95.04,91.55,142.57,137.32c4.97,4.79,8.41,10.23,10.52,16.84c23.6,73.93,47.31,147.83,71.09,221.71
		c2.26,7.02,1.96,13.53-1.08,20.24c-25.99,57.34-51.93,114.7-77.74,172.12c-3.46,7.7-8.72,12.82-16.54,16.16
		c-48.97,20.89-97.83,42.03-146.73,63.09c-0.1-33.13,0.45-66.28-0.63-99.37c-0.4-12.18,3.75-19.29,13.2-26.38
		c38.39-28.84,76.18-58.48,114.13-87.9c11.64-9.03,14.17-22.09,6.49-31.95c-8.56-10.98-21.65-12.22-33.54-3.03
		c-25.19,19.48-50.32,39.04-75.51,58.53c-7.73,5.98-15.55,11.83-24.42,18.57c0-23,0.08-44.15-0.08-65.31
		c-0.03-3.89,2.18-5.8,4.78-7.81c36.02-27.85,72.03-55.73,108.06-83.57c10.86-8.39,13.51-22.41,6.03-32.23
		c-7.83-10.27-21.33-11.75-32.45-3.23c-20.33,15.59-40.51,31.39-60.79,47.06c-8.12,6.28-16.32,12.45-25.56,19.5
		c0-23.77,0.25-45.68-0.16-67.58c-0.12-6.21,2-9.93,6.82-13.56c20.87-15.71,41.55-31.68,62.11-47.79
		c11.34-8.88,13.18-22.23,5.06-32.92c-7.24-9.54-21.04-10.61-32.01-2.3c-9.12,6.91-17.95,14.21-27.17,20.98
		c-4.62,3.39-8.5,8.02-14.65,10.16c0-36.75,0.05-72.86-0.03-108.98C450.41,131.28,443.21,123.36,427.98,121.75z"/>
	<path class="st24" d="M427.98,121.75c15.23,1.61,22.43,9.53,22.47,25.18c0.08,36.11,0.03,72.23,0.03,108.98
		c6.15-2.14,10.03-6.77,14.65-10.16c9.22-6.76,18.06-14.06,27.17-20.98c10.96-8.31,24.76-7.24,32.01,2.3
		c8.12,10.69,6.28,24.04-5.06,32.92c-20.56,16.11-41.24,32.08-62.11,47.79c-4.82,3.63-6.94,7.35-6.82,13.56
		c0.41,21.9,0.16,43.81,0.16,67.58c9.25-7.05,17.44-13.23,25.56-19.5c20.27-15.67,40.45-31.46,60.79-47.06
		c11.12-8.53,24.62-7.05,32.45,3.23c7.48,9.82,4.83,23.84-6.03,32.23c-36.03,27.85-72.03,55.72-108.06,83.57
		c-2.6,2.01-4.81,3.92-4.78,7.81c0.16,21.15,0.08,42.3,0.08,65.31c8.88-6.74,16.7-12.59,24.42-18.57
		c25.18-19.49,50.31-39.05,75.51-58.53c11.89-9.19,24.98-7.95,33.54,3.03c7.68,9.85,5.16,22.92-6.49,31.95
		c-37.95,29.43-75.74,59.06-114.13,87.9c-9.44,7.09-13.59,14.2-13.2,26.38c1.08,33.09,0.53,66.24,0.63,99.37
		c-0.1,13.6-0.64,27.22-0.17,40.8c0.47,13.39-3.57,23.64-16.5,29.16c-1.99,0-3.99,0-5.98,0c0.01-211.3,0.01-422.61,0.02-633.91
		L427.98,121.75z"/>
	<path class="st25" d="M428.13,122.09c-0.01,211.3-0.01,422.61-0.02,633.91c-1.99,0-3.99,0-5.98,0c-12.99-6-16.79-16.67-16.34-30.21
		c0.43-13.11-0.2-26.25-0.36-39.37c0.14-37.36,0.2-74.73,0.5-112.09c0.04-4.43-2.9-6.03-5.56-8.1
		c-40.54-31.43-81.11-62.82-121.65-94.25c-12.96-10.05-14.16-25.01-2.87-35.12c7.98-7.15,18.9-7.52,28.01-0.52
		c31.99,24.58,63.88,49.28,95.82,73.92c1.52,1.17,3.14,2.22,6.16,4.33c0-5.63,0-9.95,0-14.27c0-15.95-0.35-31.91,0.17-47.83
		c0.2-6.17-2.48-9.51-6.89-12.91c-35.71-27.5-71.28-55.18-106.95-82.73c-8-6.18-10.86-14.29-8.6-23.77
		c2.09-8.81,8.48-13.88,17.26-15.66c7.67-1.56,14.01,1.5,19.94,6.12c26.91,20.96,53.9,41.83,80.87,62.72
		c0.93,0.72,1.8,1.79,4.2,0.95c0-7.52,0-15.37,0-23.22c0-14.7-0.18-29.41,0.1-44.1c0.09-4.94-1.32-8.13-5.41-11.22
		c-21.06-15.91-41.85-32.17-62.69-48.38c-11.93-9.27-14.16-21.8-5.95-32.47c8.21-10.67,20.66-11.57,32.88-2.21
		c13.21,10.13,26.31,20.4,39.88,30.94c1.84-2.96,1.16-5.71,1.16-8.24c0.06-33.39-0.01-66.78,0.06-100.17
		C405.89,131.68,413.22,123.23,428.13,122.09z"/>
</g>
<g id="Layer_4" class="st0">
	<path class="st26" d="M314.8,435.89c-0.01-27.03-0.1-54.05-0.03-81.08c0.08-30.24,0.08-60.48,0.64-90.7
		c0.12-6.75-1.93-8.28-8.25-7.98c-11.04,0.52-22.13-0.02-33.19,0.19c-9.85,0.19-17.38-3.7-21.52-12.57
		c-4.2-8.99-1.71-17.17,4.63-24.51c30.69-35.53,61.32-71.11,91.97-106.68c25.02-29.04,50.13-58.01,74.96-87.23
		c4.43-5.21,9.53-8.86,15.71-11.33c0.98,0,1.97,0,2.95,0c1.82,2.9,1.44,6.15,1.44,9.32c0,233.87,0.01,467.75-0.04,701.62
		c0,2.61,0.86,5.44-1.11,7.81c-0.2-2.2-0.19-4.44-0.62-6.6c-11.59-57.55-44.05-97.9-98.88-119.75
		c13.37-17.3,23.22-36.03,25.91-58.24c3.69-30.41-3.2-57.69-21.54-82.29C338.72,453.66,326.79,444.79,314.8,435.89z"/>
	<path class="st27" d="M442.96,732.75c1.98-2.37,1.11-5.2,1.11-7.81c0.04-233.87,0.04-467.75,0.04-701.62
		c0-3.18,0.38-6.42-1.44-9.32c1.97,0,3.94,0,5.9,0c11.07,4.31,17.17,14.14,24.41,22.51c52.41,60.58,104.65,121.32,156.93,182.01
		c6.32,7.33,9.83,15.45,5.36,24.99c-4.47,9.53-12.4,13.23-22.76,13.01c-13.27-0.28-26.56,0.13-39.83-0.16
		c-4.9-0.11-6.18,1.53-6.17,6.32c0.19,59.26,0.18,118.52,0.23,177.78c-1.5,1.26-2.93,2.6-4.5,3.76
		c-40.06,29.6-55.96,84.44-35.65,132.39c4.64,10.95,11.89,20.2,18.05,30.17c-45.38,17.79-76.22,49.53-92.3,95.66
		c-4.22,12.12-5.95,24.67-8.09,37.19C443.41,737.42,442.54,735.21,442.96,732.75z"/>
	<path class="st28" d="M442.96,732.75c-0.42,2.45,0.45,4.66,1.3,6.87c-0.11,3.63-0.23,7.27-0.34,10.9
		c-53.71,0-107.43-0.02-161.14,0.05c-2.8,0-5.94-1.12-8.37,1.42c-4.92,0-9.84,0-14.76,0c0.04-0.48,0.01-0.97-0.07-1.44
		c0.02-35.4,0.04-70.79,0.06-106.19c12.74-0.62,25.21-2.66,37.32-6.8c18.29-6.25,33.1-17.65,46.5-31.17
		c54.83,21.86,87.29,62.2,98.88,119.76C442.77,728.31,442.76,730.55,442.96,732.75z"/>
	<path class="st29" d="M713.98,607.18c47.31,18.76,78.25,52.64,93.05,101.22c2.58,8.46,4.11,17.25,6.12,25.88
		c-0.85,5.87,1.72,12.03-1.48,17.71c-2.43-2.55-5.57-1.42-8.38-1.42c-58.2-0.07-116.4-0.06-174.6-0.07
		c-0.02-35.34-0.04-70.68-0.06-106.02c28.77-1.15,54.24-10.54,75.83-29.99C707.39,611.86,709.04,607.28,713.98,607.18z"/>
	<path class="st30" d="M628.64,644.48c0.02,35.34,0.04,70.68,0.06,106.02c-0.02,0.5-0.03,1-0.05,1.49c-5.41,0-10.82,0-16.24,0
		c-2.16-2.44-5.05-1.43-7.62-1.43c-50.52-0.06-101.04-0.06-151.56,0c-2.56,0-5.46-1.04-7.61,1.43c-0.49,0-0.98,0-1.48,0
		c-0.08-0.49-0.16-0.98-0.24-1.47c0.11-3.64,0.23-7.28,0.34-10.9c2.14-12.51,3.86-25.06,8.09-37.18
		c16.08-46.13,46.92-77.87,92.3-95.66c3.17,1.14,4.92,3.96,7.23,6.11c21.62,20.23,47.01,31.1,76.83,30.98L628.64,644.48z"/>
	<path class="st31" d="M259.63,644.37c-0.02,35.4-0.04,70.79-0.06,106.19c-58.68-0.01-117.37-0.03-176.05,0
		c-2.35,0-4.98-0.84-6.9,1.44c-3.19-5.68-0.63-11.84-1.48-17.71c3.41-11.63,5.01-23.71,9.25-35.14
		c16.51-44.41,47.12-74.87,90.92-92.39c4.89,1.75,7.45,6.27,11.13,9.45c18.01,15.54,38.47,25.24,62.49,26.67
		C252.27,645.07,256.12,643.52,259.63,644.37z"/>
	<path class="st32" d="M76.63,752c1.92-2.28,4.55-1.44,6.9-1.44c58.69-0.03,117.37-0.01,176.05,0c0.08,0.48,0.11,0.96,0.07,1.44
		C198.64,752,137.63,752,76.63,752z"/>
	<path class="st33" d="M628.65,752c0.02-0.5,0.03-1,0.05-1.49c58.2,0.01,116.4-0.01,174.6,0.07c2.81,0,5.95-1.13,8.38,1.42
		C750.67,752,689.66,752,628.65,752z"/>
	<path class="st34" d="M443.92,750.53c0.08,0.49,0.16,0.98,0.24,1.47c-56.58,0-113.16,0-169.74,0c2.43-2.55,5.56-1.42,8.37-1.42
		C336.49,750.51,390.2,750.53,443.92,750.53z"/>
	<path class="st35" d="M445.63,752c2.15-2.47,5.05-1.43,7.61-1.43c50.52-0.06,101.04-0.06,151.56,0c2.57,0,5.46-1.01,7.62,1.43
		C556.82,752,501.22,752,445.63,752z"/>
	<path class="st36" d="M713.98,607.18c-4.94,0.1-6.59,4.67-9.52,7.31c-21.59,19.45-47.06,28.84-75.83,29.99c0,0,0.06-0.61,0.06-0.61
		c-0.01-21.36-0.06-42.73-0.04-64.09c0.05-52.55,0.13-105.1,0.2-157.65c42.68,1.18,75.93,19.72,96.47,56.98
		c22.34,40.52,19.12,80.9-7.01,119.3C716.52,601.07,712.83,602.99,713.98,607.18z"/>
	<path class="st37" d="M628.86,422.13c-0.07,52.55-0.15,105.1-0.2,157.65c-0.02,21.36,0.02,42.73,0.04,64.09
		c-29.82,0.11-55.2-10.75-76.83-30.98c-2.3-2.15-4.06-4.98-7.23-6.11c-6.15-9.97-13.4-19.22-18.04-30.17
		c-20.32-47.95-4.41-102.79,35.65-132.39c1.57-1.16,3-2.5,4.5-3.76c13.47-8.09,27.68-14.44,43.3-16.88
		C616.23,422.61,622.5,421.48,628.86,422.13z"/>
	<path class="st38" d="M248.94,642.88c-24.01-1.43-44.48-11.13-62.49-26.67c-3.68-3.18-6.24-7.7-11.13-9.45
		c-8.94-12.02-17.49-24.47-21.53-38.96c-10.86-38.94-5.52-75.02,21.08-106.68c18.95-22.57,43.19-35.23,72.5-38.36
		c4.11-0.44,8.1-1.9,12.32-1.32c-0.01,70.25-0.03,140.5-0.04,210.74C259.65,642.6,259.65,642.6,248.94,642.88z"/>
	<path class="st39" d="M248.94,642.88c10.71-0.28,10.71-0.28,10.71-10.7c0.01-70.25,0.03-140.5,0.04-210.74
		c19.54,0.38,37.78,5.68,55.11,14.45c11.99,8.9,23.92,17.77,33.02,29.98c18.34,24.6,25.23,51.88,21.54,82.29
		c-2.69,22.21-12.54,40.94-25.91,58.24c-13.4,13.52-28.21,24.92-46.5,31.17c-12.11,4.14-24.58,6.18-37.32,6.8
		C256.12,643.52,252.27,645.07,248.94,642.88z"/>
</g>
<g id="Layer_5" class="st0">
	<path class="st12" d="M326.57,752c-72.07,0-144.14,0-216.22,0c-11.9-6.16-15.1-15.81-15.08-29.1c0.38-227.42,0.38-454.84,0-682.26
		c-0.02-13.29,3.19-22.94,15.08-29.1c74.54,0,149.08,0,223.62,0c-0.02,43.92-0.03,87.83-0.05,131.75
		c-43.13,0.02-86.26,0.36-129.38-0.16c-12.68-0.15-22.84,9.04-22.87,21.71c-0.04,14.25,11.44,21.75,22.86,21.63
		c43.12-0.45,86.25-0.15,129.38-0.13c0.01,14.29,0.02,28.57,0.03,42.86c-41.46,0.01-82.92,0-124.37,0.06
		c-10.55,0.01-20.22,2.22-25.52,12.68c-7.61,15.01,3.82,31.65,21.8,31.69c42.69,0.09,85.38,0.05,128.08,0.07
		c0,14.29,0,28.58,0,42.87c-43.11,0.01-86.21,0-129.32,0.06c-13.46,0.02-23.54,9.75-23.11,22.46c0.32,9.62,8.51,20.91,23.07,20.71
		c43.1-0.62,86.21-0.17,129.32-0.15c0.01,14.57,0.02,29.14,0.03,43.71c-15.71,2.26-22.09,9.69-22.09,25.85
		c-0.01,39.65-0.04,79.31,0.01,118.96c0.02,16.74,0.22,33.48,0.34,50.22c-0.11,40.89,0.16,81.79-0.56,122.67
		C311.38,734.5,314.24,745.21,326.57,752z"/>
	<path class="st11" d="M556.11,11.53c12.44,4.89,16.5,14.19,16.45,27.25c-0.3,93.1-0.16,186.2-0.16,279.3
		c-7.43,0.38-14.67-2.57-22.15-1.21c-50.4-0.94-98.09,38.27-105.71,86.91c-15.25,0.01-30.5,0.09-45.74,0.02
		c-21.63-0.1-43.26-0.3-64.88-0.45c-0.01-14.57-0.02-29.14-0.03-43.7l0.09-0.09c8.02,0.33,14.33-2.65,18.2-9.85
		c6.74-12.55,1.75-31.27-18.17-33.07l-0.07-0.07c0-14.29,0-28.58,0-42.87c0,0,0.07-0.07,0.07-0.07c14.06,0.01,28.12,0.18,42.18-0.03
		c11.81-0.17,22.02-9.76,22.9-21c0.8-10.24-7.35-19.92-18.63-22.02c-15.41-2.87-30.96-0.65-46.43-1.3l-0.08-0.08
		c-0.01-14.29-0.02-28.57-0.03-42.86l0.07-0.08c42.92,0.01,85.83,0.03,128.75,0.01c13.55-0.01,21.59-8.29,22.49-21.08
		c0.78-11.11-10.81-22.3-22.48-22.12c-42.91,0.66-85.83,0.27-128.74,0.28l-0.07-0.07c0.02-43.92,0.03-87.83,0.05-131.75
		C408.02,11.53,482.06,11.53,556.11,11.53z"/>
	<path class="st40" d="M326.57,752c-12.33-6.79-15.19-17.5-14.95-30.95c0.72-40.88,0.44-81.78,0.56-122.67
		c57.58-0.04,115.15-0.07,172.73-0.1c0.44,3.15,0.88,6.31,1.33,9.46c4.67,32.42,31.22,55.57,63.88,55.69
		c0.03,0.38,0.06,0.76,0.09,1.14c-0.01,29.15-0.01,58.3-0.02,87.44C475.65,752,401.11,752,326.57,752z"/>
	<path class="st41" d="M550.19,752c0.01-29.15,0.01-58.3,0.02-87.44c9.52-1.04,19.01-2.19,27.76-6.54
		c24.21-12.04,36.58-31.77,38.07-58.58c57.8,0.02,115.59,0.03,173.39,0.05c0.06,43.03,0.13,86.06,0.18,129.08
		c0.01,11.35-5.94,18.71-15.79,23.44C699.27,752,624.73,752,550.19,752z"/>
	<path class="st42" d="M484.9,598.27c-57.58,0.03-115.15,0.07-172.73,0.1c-0.12-16.74-0.32-33.48-0.34-50.22
		c-0.05-39.65-0.02-79.31-0.01-118.96c0.01-16.15,6.38-23.59,22.09-25.85c21.63,0.15,43.26,0.36,64.89,0.45
		c15.25,0.07,30.5-0.01,45.75-0.02c14.99-0.02,29.98-0.04,44.96-0.05c20.21,0.06,40.43,0.11,60.64,0.17
		c0.01,42.96,0.02,85.93,0.03,128.89c-0.04,0.4-0.06,0.8-0.07,1.21c-13.25,0-26.51-0.02-39.76,0.01
		c-17.16,0.04-25.05,7.99-25.16,25.25C485.11,572.27,485,585.27,484.9,598.27z"/>
	<path class="st43" d="M333.93,273.7c-42.69-0.01-85.38,0.03-128.08-0.07c-17.98-0.04-29.41-16.69-21.8-31.69
		c5.3-10.45,14.97-12.66,25.52-12.68c41.46-0.06,82.92-0.04,124.37-0.06c0,0,0.08,0.08,0.08,0.08c-0.01,14.78-0.01,29.56-0.02,44.34
		L333.93,273.7z"/>
	<path class="st11" d="M333.91,186.34c-43.13-0.02-86.26-0.32-129.38,0.13c-11.42,0.12-22.9-7.38-22.86-21.63
		c0.03-12.67,10.19-21.86,22.87-21.71c43.12,0.52,86.25,0.17,129.38,0.16c0,0,0.07,0.07,0.07,0.07c0,14.3,0,28.61-0.01,42.91
		L333.91,186.34z"/>
	<path class="st11" d="M333.88,359.64c-43.11-0.03-86.22-0.47-129.32,0.15c-14.56,0.21-22.74-11.08-23.07-20.71
		c-0.43-12.71,9.65-22.45,23.11-22.46c43.11-0.06,86.21-0.04,129.32-0.06c0,0,0.07,0.07,0.07,0.07
		c-0.01,14.31-0.02,28.61-0.03,42.92L333.88,359.64z"/>
	<path class="st44" d="M550.18,532.79c-0.01-42.96-0.02-85.93-0.03-128.89c7.28-2.4,14.82-0.23,22.18-1.25
		c12.89-0.03,25.79-0.05,38.68-0.08c15.24,0,30.49,0,45.73,0c33.78,0.12,67.55,0.25,101.33,0.37c2.71,0.01,5.43-0.13,8.14,0.04
		c14.46,0.92,23.27,8.98,23.33,23.41c0.24,57.69-0.04,115.39-0.12,173.08c-57.8-0.02-115.59-0.03-173.39-0.05
		c-0.15-14.01-0.28-28.02-0.44-42.03c-0.18-15.79-8.81-24.3-24.82-24.42C577.24,532.89,563.71,532.85,550.18,532.79z"/>
	<path class="st45" d="M656.75,402.57c-15.24,0-30.49,0-45.73,0c-7.1-18.47-19.85-31.21-38.48-38c-7.07-3.74-15.12-2.66-22.56-4.62
		c0.09-14.35,0.18-28.71,0.27-43.06c7.48-1.36,14.72,1.59,22.15,1.21c15.7,4.4,30.75,10.28,43.68,20.51
		C637.05,355.17,651.39,376.03,656.75,402.57z"/>
	<path class="st46" d="M333.99,186.27c0-14.3,0-28.61,0.01-42.91c42.92-0.01,85.84,0.38,128.74-0.28
		c11.67-0.18,23.27,11.01,22.48,22.12c-0.9,12.79-8.94,21.07-22.49,21.08C419.82,186.3,376.9,186.27,333.99,186.27z"/>
	<path class="st47" d="M550.25,316.88c-0.09,14.35-0.18,28.71-0.27,43.06c-2.43,0.33-4.87,0.63-7.29,0.98
		c-26.15,3.8-43.85,18.11-53.18,42.81c-14.99,0.02-29.97,0.04-44.96,0.05C452.17,355.15,499.85,315.94,550.25,316.88z"/>
	<path class="st48" d="M334.01,273.62c0.01-14.78,0.01-29.56,0.02-44.34c15.47,0.64,31.03-1.57,46.43,1.3
		c11.27,2.1,19.43,11.78,18.63,22.02c-0.88,11.24-11.09,20.83-22.9,21C362.13,273.81,348.06,273.63,334.01,273.62z"/>
	<path class="st48" d="M333.97,359.55c0.01-14.31,0.02-28.61,0.03-42.92c19.92,1.79,24.91,20.52,18.17,33.07
		C348.3,356.9,341.99,359.88,333.97,359.55z"/>
	<path class="st19" d="M550.18,532.79c13.53,0.06,27.06,0.1,40.58,0.2c16.02,0.12,24.65,8.63,24.82,24.42
		c0.16,14.01,0.29,28.02,0.44,42.03c-1.48,26.81-13.86,46.53-38.07,58.58c-8.74,4.35-18.24,5.5-27.76,6.54
		c-0.03-0.38-0.06-0.76-0.09-1.14c0-43.14,0-86.28,0-129.42C550.12,533.59,550.14,533.19,550.18,532.79z"/>
	<path class="st21" d="M550.11,534c0,43.14,0,86.28,0,129.42c-32.65-0.12-59.21-23.27-63.88-55.69c-0.45-3.15-0.89-6.31-1.33-9.46
		c0.1-13,0.21-26,0.3-39.01c0.11-17.26,8-25.21,25.16-25.25C523.61,533.98,536.86,534,550.11,534z"/>
	<path class="st49" d="M489.51,403.73c9.33-24.71,27.02-39.01,53.18-42.81c2.43-0.35,4.86-0.66,7.29-0.98
		c7.43,1.96,15.49,0.89,22.56,4.63c-0.07,12.69-0.14,25.39-0.2,38.08c-7.36,1.02-14.9-1.15-22.18,1.25
		C529.93,403.85,509.72,403.79,489.51,403.73z"/>
	<path class="st50" d="M572.33,402.65c0.07-12.69,0.14-25.39,0.2-38.08c18.63,6.79,31.38,19.53,38.48,38
		C598.12,402.59,585.23,402.62,572.33,402.65z"/>
</g>
<g id="Layer_6" class="st0">
	<path class="st8" d="M23.32,348.54c3.99-8.22,3.36-17.33,4.55-26c3.27-23.87,9.32-47.04,16.05-70.06
		c4.61-15.75,17.21-22.35,33.19-17.95c7.79,2.15,15.14,5.83,23.3,6.71c2.83,1.11,5.61,2.4,8.51,3.32
		c92.23,29.09,184.46,58.17,276.71,87.18c27.16,8.54,54.39,16.86,81.58,25.28c0,0-0.12-0.01-0.12-0.01
		c-0.08,0.41-0.09,0.82-0.05,1.24c-1.7,2.53-3.56,4.96-5.07,7.6c-52.98,92.56-106,185.09-158.81,277.75
		c-12.18,21.37-25.21,42.28-36.1,64.39c-4.07,6.66-8.24,13.27-12.2,19.99c-7.21,12.23-20.61,16.6-33.19,9.84
		c-16.31-8.77-30.9-20.16-45.21-31.83c-38.98-31.81-70.87-69.77-96.22-113.13c-24.92-42.6-41.53-88.31-50.34-136.93
		c-2.52-13.89-2.78-28.12-6.59-41.79C23.32,392.26,23.32,370.4,23.32,348.54z"/>
	<path class="st40" d="M811.66,258.84c7.23,0.12,14.5,0.79,21.68,0.23c15.01-1.16,25.2,4.83,30.66,18.85c0,4.48,0,8.97,0,13.45
		c-7.38,13.7-19.04,17.19-34.13,17.11c-95.68-0.5-191.36-0.22-287.04-0.28c-19.36-0.01-31.54-15.91-25.31-32.89
		c3.63-9.89,10.91-15.43,21.46-15.99c8.65-0.46,17.32-0.36,25.98-0.51c16.55,0,33.1,0,49.66,0c16.33,0.03,32.65,0.07,48.98,0.1
		c16.47,0,32.94-0.01,49.4-0.01c16.33-0.02,32.66-0.04,48.99-0.05C778.55,258.85,795.11,258.84,811.66,258.84z"/>
	<path class="st51" d="M467.04,358.23c-0.04-0.42-0.03-0.83,0.05-1.24c104.47,0.02,208.95,0.04,313.42,0.07
		c22.39,0.01,31.85,9.2,31.18,31.74c-3.08,103.31-41.48,191.18-116.47,262.51c-53.52,50.9-117.15,82.22-189.79,95.12
		c-12.62,2.24-25.34,4.51-38.29,4.03C467.11,619.72,467.07,488.97,467.04,358.23z"/>
	<path class="st52" d="M467.21,357c-27.2-8.42-54.43-16.74-81.58-25.28c-92.25-29.01-184.48-58.09-276.71-87.18
		c-2.9-0.91-5.68-2.2-8.51-3.32c44.06-102.67,118.81-172.64,224.26-209.4c36.15-12.6,73.8-17.86,111.99-19.22
		c19.84-0.71,30.21,9.32,30.22,29.39c0.03,101.65,0.01,203.29,0.03,304.94C466.91,350.3,467.11,353.65,467.21,357z"/>
	<path class="st53" d="M467.04,358.23c0.03,130.74,0.07,261.48,0.1,392.23c-68.05,4.79-132.37-8.73-193.21-39.36
		c-2.24-1.13-4.57-2.09-6.86-3.13c10.88-22.11,23.91-43.01,36.1-64.39C355.97,550.92,409,458.39,461.97,365.83
		C463.48,363.2,465.34,360.76,467.04,358.23z"/>
	<path class="st54" d="M811.66,258.84c-16.55,0.01-33.11,0.01-49.66,0.02c0-56.32-0.07-112.64,0.03-168.95
		c0.03-18.81,13.07-30.57,29.78-27.32c12.39,2.41,19.8,12.48,19.82,27.3c0.05,51.55,0.02,103.11,0.02,154.66
		C811.65,249.31,811.66,254.07,811.66,258.84z"/>
	<path class="st42" d="M713.01,258.91c-16.47,0-32.94,0.01-49.4,0.01c0.07-40.88,0.17-81.75,0.21-122.63
		c0.01-9.87,4.3-17.25,12.87-21.96c8.3-4.56,16.77-4.21,24.71,0.81c7.94,5.03,11.46,12.49,11.45,21.98
		C712.79,177.72,712.93,218.31,713.01,258.91z"/>
	<path class="st55" d="M614.62,258.82c-16.55,0-33.11,0-49.66,0c0-23.51-0.06-47.02,0-70.53c0.05-16.65,10.12-27.88,24.81-27.9
		c14.69-0.02,24.81,11.18,24.88,27.91C614.75,211.8,614.64,235.31,614.62,258.82z"/>
</g>
<g id="Layer_7" class="st0">
	<g class="st56">
		<path class="st57" d="M651.43,473.74c-20.26,11.98-40.55,23.9-60.76,35.96c-13.69,8.17-27.26,16.54-40.89,24.81
			c-12.4,7.56-24.79,15.12-37.19,22.68c-0.89,0.32-1.86,0.51-2.65,0.98c-25.36,15.17-50.71,30.36-76.04,45.58
			c-1.37,0.82-3.12,1.5-2.81,3.67c-13.66,5.05-25.2,13.77-37.35,21.45c-1.52,0.59-3.17,0.98-4.55,1.8
			c-32.46,19.47-64.88,38.98-97.31,58.49c-9.36-9.15-18.78-18.24-28.06-27.47c-16.9-16.8-33.71-33.69-50.57-50.52
			c-2.33-2.33-4.61-5.56-8.22-1.8c-8.73,9.09-18.38,17.29-26.33,27.14c-12.99-12.97-26.12-25.79-38.92-38.93
			c-20.92-21.46-43.23-41.58-62.61-64.53c0-4.3,0-8.59,0-12.89c1.42-2.13,2.78-4.31,4.27-6.4c7.33-10.32,21.61-11.1,31.94-2.21
			c4.49,3.87,7.05,10.16,13.76,11.34c0.02,3.34,2.74,4.89,4.7,6.85c23.58,23.65,47.36,47.11,70.7,71c4.67,4.78,7,4.37,11.49-0.13
			c91.47-91.73,183.1-183.31,274.72-274.88c2.17-2.17,3.98-4.8,6.95-6.07c2.17-0.02,3.39,1.54,4.73,2.88
			C550.76,372.94,601.1,423.34,651.43,473.74z"/>
		<path class="st58" d="M77.17,533.07c19.38,22.95,41.69,43.07,62.61,64.53c12.81,13.14,25.94,25.96,38.92,38.93
			c22.53,22.59,44.91,45.32,67.64,67.7c11.64,11.46,22.17,24.12,35.64,33.66c-66.6,0-133.2-0.05-199.8,0.12
			c-4.27,0.01-5.14-0.86-5.13-5.13C77.22,666.27,77.17,599.67,77.17,533.07z"/>
		<path class="st59" d="M281.99,737.88c-13.47-9.53-24-22.2-35.64-33.66c-22.73-22.38-45.12-45.11-67.64-67.7
			c7.95-9.85,17.6-18.05,26.33-27.14c3.61-3.76,5.89-0.53,8.22,1.8c16.86,16.84,33.67,33.72,50.57,50.52
			c9.28,9.23,18.7,18.32,28.06,27.47c2.53,2.78,4.75,5.95,7.65,8.26c13.74,10.96,16.31,29.71-4.66,40.45
			C290.58,737.88,286.28,737.88,281.99,737.88z"/>
		<path class="st60" d="M793.31,252.34c-3.42,10.55-11.98,14.84-21.42,18.98c-22.86,10.05-45.35,20.93-68.04,31.37
			c-4.51,2.08-9.11,4.47-13.91,5.33c-11.31,2.02-20.73-3.75-23.7-13.63c-3.08-10.24,1.34-20.78,11.45-25.71
			c13.25-6.46,26.7-12.52,40.11-18.66c14.26-6.54,28.86-12.43,42.78-19.63c13.73-7.09,27.37-2.18,32.73,13.34
			C793.31,246.61,793.31,249.48,793.31,252.34z"/>
		<path class="st61" d="M571.31,21.75c3.14,1.93,6.74,2.73,9.51,5.68c7.61,8.1,9.26,14.14,4.74,24.46
			c-6.78,15.46-13.88,30.77-20.91,46.12c-6.04,13.19-11.98,26.43-18.34,39.46c-4.79,9.82-14.6,14.06-25.09,11.53
			c-11.54-2.78-18.19-16.57-13.06-28.01c10.11-22.57,20.52-45,30.8-67.49c1.98-4.32,4.07-8.6,5.81-13.02
			c3.45-8.73,8.61-15.71,17.95-18.74C565.58,21.75,568.44,21.75,571.31,21.75z"/>
		<path class="st60" d="M793.31,48.96c-3.51,6.01-8.45,10.79-13.33,15.65c-36.77,36.71-73.47,73.49-110.25,110.18
			c-9.21,9.19-19.74,9.69-29.39,1.76c-1.02-0.84-1.52-1.75-1.64-2.98c3.32-0.07,4.85-2.81,6.8-4.76
			c45.34-45.28,90.65-90.59,135.94-135.92c1.67-1.67,3.14-3.54,4.71-5.32c4.03,1.45,4.25,6.1,7.15,8.5
			C793.31,40.37,793.31,44.66,793.31,48.96z"/>
		<path class="st62" d="M786.16,27.57c-1.56,1.78-3.04,3.65-4.71,5.32c-45.29,45.33-90.6,90.64-135.94,135.92
			c-1.96,1.96-3.48,4.69-6.8,4.76c-8.06-8.25-7.77-18.79,1.05-27.63c33.68-33.76,67.37-67.51,101.18-101.14
			c8.06-8.02,15.28-17,25.16-23.05c3.82,0,7.64,0,11.46,0C780.01,24.3,784.64,23.63,786.16,27.57z"/>
		<path class="st63" d="M786.16,27.57c-1.52-3.94-6.15-3.27-8.61-5.82c0.48,0,0.95,0,1.43,0c4.77,0,11.41-1.86,13.8,0.52
			c2.39,2.39,0.52,9.02,0.52,13.8C790.41,33.67,790.19,29.02,786.16,27.57z"/>
		<path class="st64" d="M495.7,319.68c-2.97,1.28-4.78,3.9-6.95,6.07C397.13,417.33,305.5,508.9,214.03,600.63
			c-4.49,4.5-6.81,4.91-11.49,0.13c-23.34-23.88-47.12-47.34-70.7-71c-1.96-1.96-4.68-3.51-4.7-6.85
			c8.45-16.83,18.86-32.54,28.52-48.66c60.56-101.02,121.24-201.97,181.91-302.93c1.34-2.23,2.93-4.3,4.4-6.44
			c2.14,1.87,4.39,3.63,6.4,5.64c46.91,46.87,93.79,93.77,140.7,140.64c2.01,2,4.25,3.77,6.38,5.65
			C495.54,317.77,495.62,318.72,495.7,319.68z"/>
		<path class="st65" d="M393.75,628.88c12.15-7.68,23.69-16.4,37.35-21.45c12.7,12.55,25.44,25.05,38.08,37.66
			c9.94,9.92,21.9,15.68,35.86,14.76c19.35-1.27,34.12-10.62,41.2-29.22c7.45-19.57,2.64-36.95-11.84-51.76
			c-7.16-7.32-14.52-14.46-21.79-21.68c12.4-7.56,24.79-15.12,37.19-22.68c9.48,10.95,20.92,20.08,28.73,32.62
			c32.84,52.71,1.45,123.11-59.82,133.41c-29.48,4.96-55.34-2.88-76.86-23.64C425.53,661.18,409.76,644.91,393.75,628.88z"/>
		<path class="st59" d="M495.7,319.68c-0.08-0.95-0.16-1.91-0.24-2.86c9.46-4.8,14.87-14.08,22.75-20.63
			c2.82-2.35,4.51-6.2,8.77-6.66c2.09,1.92,4.24,3.78,6.25,5.78c55.24,55.28,110.47,110.55,165.68,165.86
			c10.69,10.71,11.28,23.04,1.74,32.62c-7.66,7.69-20.35,8.05-28.35,0.5c-7.1-6.7-13.92-13.7-20.86-20.56
			c-50.33-50.4-100.67-100.79-151-151.19C499.09,321.21,497.87,319.66,495.7,319.68z"/>
		<path class="st57" d="M526.97,289.53c-4.26,0.45-5.95,4.31-8.77,6.66c-7.87,6.55-13.29,15.82-22.75,20.63
			c-2.13-1.88-4.37-3.65-6.38-5.65c-46.91-46.87-93.79-93.77-140.7-140.64c-2.01-2-4.26-3.76-6.4-5.64
			c-5.48-7.26-12.52-13.02-18.78-19.53c-9.38-9.77-10.03-22.8-1.39-31.21c8.95-8.71,21.51-8.17,31.14,1.45
			C408.98,171.54,464.99,227.51,521,283.48C523.01,285.48,524.98,287.51,526.97,289.53z"/>
		<path class="st66" d="M512.6,557.19c7.27,7.22,14.63,14.35,21.79,21.68c14.48,14.81,19.29,32.19,11.84,51.76
			c-7.08,18.6-21.85,27.95-41.2,29.22c-13.96,0.92-25.92-4.84-35.86-14.76c-12.64-12.61-25.38-25.11-38.08-37.66
			c-0.31-2.17,1.45-2.85,2.81-3.67c25.33-15.22,50.68-30.41,76.04-45.58C510.74,557.7,511.71,557.51,512.6,557.19z"/>
	</g>
</g>
<g id="Layer_8" class="st0">
	<path class="st67" d="M866,201.23c0,152.48,0,304.95,0,457.43c-2.55,1.18-2.02,3.87-2.51,5.83c-9.97,39.23-46.51,68.61-91.85,68.15
		c-85.02-0.87-170.05-0.23-255.08-0.26c-23.13-0.01-46.27-0.17-69.4-0.26c0.01-21.61,0.02-43.22,0.02-64.83
		c33.73-0.72,66.41-6.99,97.14-20.98c99.97-45.52,155.4-149.3,136.55-256.6c-14.83-84.39-63.31-144.39-142.04-179.03
		c-29.11-12.81-60.07-17.83-91.74-18.76c0.02-54.33,0.04-108.66,0.07-163c27.05-0.09,54.11-0.57,81.15-0.14
		c25.52,0.4,45.38,12.12,59.48,33.18c11.18,16.69,15.01,36.42,21.08,55.12c2.51,7.73,5.55,10.13,13.59,10.09
		c52.99-0.26,106-0.62,158.97,0.4c36.62,0.7,67.58,25.15,79.69,59.93C862.72,192.08,863.06,197.13,866,201.23z M782.4,249.92
		c0.11-13.52-10.5-24.6-23.89-24.95c-13.54-0.35-25,11.01-24.96,24.75c0.04,13.49,10.9,24.41,24.35,24.47
		C771.35,274.25,782.29,263.41,782.4,249.92z"/>
	<path class="st68" d="M447.16,28.92c-0.02,54.33-0.04,108.66-0.06,163c-0.1,0.28-0.14,0.56-0.12,0.85
		c-21.59,0-42.77,2.76-63.63,8.54C255.84,236.68,183.6,368.8,219.23,494.9c27.83,98.49,118.51,171.4,227.82,171.8l0.13,0.59
		c-0.01,21.61-0.02,43.22-0.02,64.83c-0.83,0.08-1.67,0.22-2.5,0.22c-109.4,0.01-218.8,0.22-328.2-0.1
		c-38.79-0.11-72.74-26.48-84.29-63.78c-1.04-3.35-0.9-7.24-3.95-9.8c0-151.36,0-302.72,0-454.08c3.51-11.03,6.1-22.37,12.05-32.54
		c12.68-21.66,31.82-34.88,55.09-42.85c13.78-2.21,27.68-1.78,41.56-1.79c35.3-0.03,70.6-0.09,105.91-0.13
		c11.17-0.01,22.34-0.22,33.5,0.06c4.43,0.11,6.41-1.57,7.69-5.64c4.16-13.31,8.51-26.56,13.01-39.75
		c10.78-31.58,36.13-52.11,67.23-52.96C391.87,28.22,419.52,28.88,447.16,28.92z M145.48,224.9c-8.08,0-16.16-0.16-24.24,0.03
		c-14.89,0.35-25.53,10.3-25.94,24.01c-0.42,13.77,9.6,24.61,24.62,25.17c16.41,0.61,32.89,0.62,49.3-0.01
		c14.42-0.55,24.41-11.3,24.37-24.66c-0.04-13.51-10.85-24-25.54-24.49C160.53,224.71,153,224.91,145.48,224.9z"/>
	<path class="st69" d="M447.09,191.92c31.67,0.93,62.63,5.95,91.74,18.76c78.73,34.64,127.21,94.64,142.04,179.03
		c18.85,107.31-36.58,211.08-136.55,256.6c-30.73,13.99-63.41,20.25-97.14,20.98c0,0-0.13-0.59-0.13-0.59
		c0.02-18.79,0.03-37.57,0.04-56.36c25.52-1.14,50.28-5.75,73.76-16.18c64.71-28.73,111.92-97.34,105.59-176.98
		c-5.31-66.75-38.28-115.67-96.61-147.62c-25.63-14.04-53.64-19.69-82.73-20.34c-0.04-18.82-0.09-37.64-0.13-56.46
		C446.96,192.48,447,192.19,447.09,191.92z"/>
	<path class="st70" d="M446.97,192.77c0.04,18.82,0.09,37.64,0.13,56.46c-0.02,0.29-0.01,0.57,0.03,0.85
		c-9.56-1.09-19.01,0.51-28.32,1.97c-99.84,15.66-167.26,111.29-148.59,210.45c16.09,85.43,89.86,146.72,176.91,146.96
		c-0.03,0.29-0.04,0.58-0.03,0.87c-0.01,18.79-0.03,37.58-0.04,56.36c-109.32-0.4-199.99-73.3-227.82-171.8
		c-35.64-126.1,36.6-258.22,164.11-293.59C404.2,195.52,425.38,192.77,446.97,192.77z"/>
	<path class="st71" d="M95.36,129.2c0.38-17.24-1.75-34.59,1.13-51.7c4.7-27.95,24.12-46.09,52.71-48.39
		c14.64-1.18,29.55-1.81,44.17,0.7c30.17,5.17,48.83,27.43,49.23,58.2c0.17,13.09,0.15,26.18,0.22,39.27
		c-35.3,0.04-70.61,0.1-105.91,0.13C123.04,127.42,109.15,126.99,95.36,129.2z"/>
	<path class="st72" d="M447.11,249.23c29.09,0.64,57.1,6.3,82.73,20.34c58.34,31.94,91.31,80.87,96.61,147.62
		c6.33,79.64-40.88,148.24-105.59,176.98c-23.48,10.43-48.24,15.03-73.76,16.18c-0.01-0.29,0-0.58,0.03-0.87
		c0-119.8,0-239.59,0.01-359.39C447.1,249.8,447.09,249.52,447.11,249.23z"/>
	<path class="st73" d="M447.13,250.08c0,119.8,0,239.59-0.01,359.39c-87.05-0.25-160.82-61.53-176.91-146.96
		c-18.67-99.16,48.74-194.8,148.59-210.45C428.13,250.59,437.58,248.99,447.13,250.08z"/>
</g>
<g id="Layer_9" class="st0">
	<path class="st74" d="M349.96,18.47c10.24,0,20.47,0,30.71,0c0.81,0.46,1.6,1.24,2.45,1.32c23.63,2.11,45.62,9.43,66.38,20.73
		c-0.03,149.61-0.06,299.23-0.09,448.84c-6.93,0.04-13.86,0.07-20.8,0.11c-1.22-2.8-0.73-5.76-0.73-8.65
		c-0.03-42.07,0.01-84.14-0.04-126.21c-0.01-11.43,0.3-22.89-0.47-34.27c-1.61-23.58-21.78-43.54-45.38-44.35
		c-20.39-0.7-40.83-0.12-61.25-0.11c-19.71-0.02-39.43-0.51-59.12,0.09c-15.89,0.48-28.82,7.53-38.27,20.65
		c-6.65,9.24-9.4,19.57-9.42,30.78c-0.09,54.01-0.17,108.03-0.26,162.04c-4.39,0.11-8.65-0.73-12.98-1.41
		c-35.49-5.55-64.48-22.49-86.44-50.65c-23.11-29.64-32.7-63.3-27.61-100.99c5.11-37.91,23.11-68,53.52-90.84
		c12.93-9.71,27.14-17.01,42.75-21.44c3.62-1.03,4.66-2.42,3.78-6.7c-1.46-7.06-2.24-14.48-1.8-21.66
		c1.12-18.12,3.25-36.12,8.9-53.56c9.92-30.57,27.18-56.21,50.9-77.74c20.13-18.27,43.29-30.93,69.25-38.82
		C325.74,22.05,338.01,21.15,349.96,18.47z"/>
	<path class="st75" d="M259.63,706.93c-50.62,0.03-101.25-0.11-151.87,0.2c-11.41,0.07-18.18-6.02-23.95-14.49
		c0-4.87,0-9.75,0-14.62c7.23-12.54,18.62-14.57,32.07-14.42c47.89,0.53,95.79,0.25,143.69,0.28
		C256,678.23,255.58,692.58,259.63,706.93z"/>
	<path class="st76" d="M815,692.64c-7.15,12.5-18.39,14.72-31.88,14.56c-47.91-0.6-95.82-0.32-143.73-0.38
		c3.99-14.27,3.97-28.54,0.02-42.81c51.04-0.05,102.08-0.04,153.12-0.22c10.75-0.04,16.83,6.58,22.47,14.23
		C815,682.89,815,687.76,815,692.64z"/>
	<path class="st77" d="M382.21,706.86c-8.74,19.95-22.57,34.36-43.94,40.74c-1.95,0.58-4.57-0.42-5.87,2.07c-3.9,0-7.8,0-11.7,0
		c0-42.79-0.01-85.57-0.01-128.36c0,0,0.02-0.56,0.02-0.56c7.42-0.18,14.49,1.9,21.67,3.3c18.78,7.81,31.99,21.18,39.84,39.9
		C386.14,678.26,386.16,692.56,382.21,706.86z"/>
	<path class="st77" d="M639.41,664c3.95,14.27,3.97,28.54-0.02,42.81c-9.39,22.55-26.31,36.39-49.6,42.86c-3.9,0-7.8,0-11.7,0
		c-0.01-42.8-0.03-85.61-0.04-128.41c7.49-1.29,14.4,1.78,21.58,2.83C618.32,631.98,631.49,645.37,639.41,664z"/>
	<path class="st78" d="M578.05,621.26c0.01,42.8,0.03,85.61,0.04,128.41c-3.41,0-6.82,0-10.24,0c-9.72-2.99-19.21-6.36-27.71-12.25
		c-11.02-7.64-17.42-18.68-23.34-30.18c0.19-0.5,0.11-0.95-0.22-1.36c-3.87-13.68-3.69-27.36-0.04-41.04
		c0.3-0.41,0.39-0.86,0.26-1.35c8.05-18.29,21.12-31.53,39.61-39.31c7.22-1.12,14.44-2.23,21.66-3.35L578.05,621.26z"/>
	<path class="st78" d="M320.7,621.31c0,42.79,0.01,85.57,0.01,128.36c-3.41,0-6.82,0-10.24,0c-8.55-3.23-17.35-5.68-25.21-10.76
		c-12.2-7.88-19.44-19.44-25.63-31.98c-4.04-14.34-3.62-28.7-0.07-43.05c8.09-18.43,21.43-31.61,39.76-39.82
		C306.49,623.55,313.32,620.31,320.7,621.31z"/>
	<path class="st79" d="M449.5,40.51c19.41,11.05,36.83,24.51,50.53,42.33c3.5,4.56,6.78,5.33,12.25,3.03
		c57.42-24.16,124.6-4.94,161.12,45.63c17.52,24.26,25.64,51.48,25.87,81.14c0.04,5.33,1.44,7.72,6.79,8.78
		c25.21,5,47.28,16.59,65.56,34.46c22.14,21.65,36.19,47.76,40.53,78.85c5.37,38.46-4.1,73-27.92,103.22
		c-21.9,27.78-50.44,45.14-85.97,50.11c-4.33,0.61-8.61,1.47-13,1.45c-0.11-2.67-0.31-5.34-0.31-8.01
		c-0.03-52.11,0.14-104.21-0.11-156.32c-0.13-27.52-21.57-48.97-49.05-49.39c-19.23-0.29-38.46,0.03-57.7,0.07
		c-18.98-0.01-37.95-0.08-56.93-0.02c-28.39,0.09-49.82,21.36-49.86,49.59c-0.07,49.15-0.01,98.29-0.04,147.44
		c0,5.59-0.25,11.17-0.38,16.76c-7.16-0.09-14.32-0.18-21.48-0.27C449.44,339.74,449.47,190.13,449.5,40.51z"/>
	<path class="st80" d="M299.35,575.73c-14.74-1-29.57,1.25-44.28-1.43c-23.75-4.32-40.76-24.19-41.14-48.46
		c-0.19-12.13-0.19-24.26-0.27-36.4c0.08-54.01,0.17-108.03,0.26-162.04c0.02-11.21,2.77-21.54,9.42-30.78
		c9.45-13.12,22.38-20.17,38.27-20.65c19.69-0.59,39.41-0.11,59.12-0.09c-0.01,28.23-0.01,56.45-0.02,84.68
		c-9.37,1.64-16.94,5.75-20.22,15.33c-3.93,11.48,2.32,26.26,20.22,28.79c0.05,14.02,0.09,28.03,0.14,42.05l-0.21,0.46
		c-12.43,0.51-21.46,9.39-21.44,21.09c0.03,11.73,9.12,20.68,21.41,21.07c0.24,0.24,0.4,0.52,0.5,0.85
		c-0.15,28.35-0.29,56.71-0.44,85.06C313.58,575.42,306.47,575.57,299.35,575.73z"/>
	<path class="st28" d="M320.69,575.26c0.15-28.35,0.29-56.71,0.44-85.06c14.22-2.7,22.13-11.22,21.42-23.08
		c-0.67-11.3-9.09-19.21-21.69-20.38c-0.05-14.02-0.09-28.03-0.14-42.05l0-0.56c13.98-1.4,22.25-9.81,21.85-22.19
		c-0.38-11.85-9.1-20.13-21.85-20.77l0-0.59c0.01-28.23,0.01-56.45,0.02-84.68c20.42-0.01,40.86-0.59,61.25,0.11
		c23.6,0.81,43.77,20.77,45.38,44.35c0.78,11.38,0.46,22.84,0.47,34.27c0.04,42.07,0.01,84.14,0.04,126.21
		c0,2.89-0.48,5.85,0.73,8.65c-0.38,13.81-0.27,27.65-1.24,41.42c-1.5,21.16-18.33,39.29-39.04,43.3
		c-15.19,2.94-30.53,0.48-45.76,1.62c-7.27,0.02-14.54,0.04-21.81,0.06L320.69,575.26z"/>
	<path class="st28" d="M578.1,275.86c19.23-0.05,38.47-0.37,57.7-0.07c27.48,0.42,48.92,21.87,49.05,49.39
		c0.25,52.1,0.08,104.21,0.11,156.32c0,2.67,0.2,5.34,0.31,8.01c-0.09,11.2-0.15,22.41-0.27,33.61
		c-0.31,31.41-21.53,52.38-53.05,52.49c-10.72,0.04-21.44,0.13-32.15,0.2c-7.23,0.01-14.46,0.02-21.69,0.03l-0.04-0.6
		c0.04-28.39,0.08-56.78,0.12-85.17c13.74-2.3,21.84-10.6,21.57-22.11c-0.27-11.6-8.79-19.97-21.57-21.21
		c-0.02-14.04-0.04-28.08-0.06-42.12c17.86-3.12,26.59-18.23,18.8-32.44c-4.09-7.47-11.06-10.11-18.8-11.56
		C578.12,332.37,578.11,304.12,578.1,275.86z"/>
	<path class="st76" d="M578.11,575.83c7.23-0.01,14.46-0.02,21.69-0.03c-0.06,16.1-0.12,32.19-0.18,48.29
		c-7.18-1.05-14.09-4.12-21.58-2.83c0,0,0.03-0.45,0.03-0.45C578.09,605.82,578.1,590.83,578.11,575.83z"/>
	<path class="st75" d="M299.35,575.73c7.11-0.16,14.23-0.31,21.34-0.47c0,0,0.07,0.61,0.07,0.61c-0.01,14.96-0.03,29.93-0.04,44.89
		c0,0-0.02,0.56-0.02,0.56c-7.38-1.01-14.2,2.24-21.39,2.74C299.33,607.95,299.34,591.84,299.35,575.73z"/>
	<path class="st75" d="M382.23,663.95c22.42,0.01,44.85,0.02,67.27,0.03c-0.01,14.27-0.01,28.55-0.02,42.82
		c-22.43,0.02-44.85,0.04-67.28,0.05C386.16,692.56,386.14,678.26,382.23,663.95z"/>
	<path class="st81" d="M449.49,706.81c0.01-14.27,0.01-28.55,0.02-42.82c21.9-0.07,43.8-0.14,65.7-0.21
		c0.45,0.35,0.89,0.7,1.34,1.06c-3.65,13.68-3.83,27.37,0.04,41.04c-0.46,0.37-0.92,0.74-1.38,1.11
		C493.3,706.92,471.39,706.87,449.49,706.81z"/>
	<path class="st75" d="M515.2,706.98c0.46-0.37,0.92-0.74,1.38-1.11c0.33,0.41,0.41,0.87,0.22,1.36
		C516.27,707.15,515.74,707.06,515.2,706.98z"/>
	<path class="st81" d="M320.72,620.75c0.01-14.96,0.03-29.93,0.04-44.89c7.27-0.02,14.54-0.04,21.81-0.06
		c-0.06,16.08-0.12,32.16-0.18,48.24C335.21,622.65,328.14,620.57,320.72,620.75z"/>
	<path class="st75" d="M578.11,575.83c-0.01,14.99-0.03,29.99-0.04,44.98c-7.22,1.11-14.44,2.23-21.66,3.35
		c-0.02-16.15-0.04-32.31-0.06-48.47c7.24-0.15,14.48-0.3,21.72-0.46L578.11,575.83z"/>
	<path class="st75" d="M516.54,664.83c-0.45-0.35-0.89-0.7-1.34-1.06c0.53-0.1,1.06-0.2,1.6-0.3
		C516.93,663.97,516.84,664.42,516.54,664.83z"/>
	<path class="st80" d="M578.07,575.24c-7.24,0.15-14.48,0.3-21.72,0.46c-14.79-0.9-29.65,1.24-44.41-1.43
		c-23.17-4.19-40.18-23.77-40.72-47.41c-0.28-12.41-0.23-24.82-0.34-37.23c0.13-5.58,0.37-11.17,0.38-16.76
		c0.03-49.15-0.03-98.29,0.04-147.44c0.04-28.23,21.47-49.51,49.86-49.59c18.98-0.06,37.95,0.01,56.93,0.02
		c0.01,28.25,0.02,56.51,0.03,84.76c0,0,0.06,0.65,0.06,0.65c-13.08,0.97-21.85,9.55-21.84,21.37c0.01,11.99,8.56,20.35,21.83,21.35
		l-0.05,0.63c0.02,14.04,0.04,28.08,0.06,42.12l-0.24,0.45c-12.17,0.2-21.35,9-21.6,20.7c-0.25,11.9,8.99,21.11,21.57,21.49
		c0.17,0.2,0.26,0.43,0.26,0.69C578.15,518.46,578.11,546.85,578.07,575.24z"/>
	<path class="st82" d="M320.86,446.73c12.6,1.17,21.01,9.09,21.69,20.38c0.71,11.86-7.2,20.38-21.42,23.08
		c-0.1-0.32-0.26-0.61-0.5-0.85c0.01-14.05,0.02-28.1,0.02-42.16L320.86,446.73z"/>
	<path class="st78" d="M320.72,404.68c-17.91-2.53-24.15-17.31-20.22-28.79c3.28-9.58,10.85-13.69,20.22-15.33c0,0,0,0.59,0,0.59
		c0,14.32,0,28.64,0,42.96L320.72,404.68z"/>
	<path class="st83" d="M320.65,447.19c-0.01,14.05-0.02,28.1-0.02,42.16c-12.29-0.39-21.38-9.34-21.41-21.07
		C299.19,456.59,308.22,447.7,320.65,447.19z"/>
	<path class="st77" d="M320.72,404.12c0-14.32,0-28.64,0-42.96c12.76,0.64,21.47,8.92,21.86,20.77
		C342.98,394.31,334.7,402.71,320.72,404.12z"/>
	<path class="st82" d="M578.19,446.75c12.78,1.24,21.29,9.61,21.57,21.21c0.27,11.52-7.82,19.81-21.57,22.11
		c0-0.26-0.09-0.49-0.26-0.69c0.01-14.06,0.02-28.12,0.03-42.18L578.19,446.75z"/>
	<path class="st77" d="M578.13,360.62c7.74,1.45,14.71,4.09,18.8,11.56c7.79,14.21-0.94,29.33-18.8,32.44c0,0,0.05-0.63,0.05-0.63
		c0-14.24,0-28.49,0.01-42.73L578.13,360.62z"/>
	<path class="st78" d="M578.19,361.27c0,14.24,0,28.49-0.01,42.73c-13.27-1-21.83-9.36-21.84-21.35
		C556.33,370.82,565.1,362.24,578.19,361.27z"/>
	<path class="st83" d="M577.96,447.2c-0.01,14.06-0.02,28.12-0.03,42.18c-12.59-0.38-21.83-9.58-21.58-21.49
		C556.6,456.2,565.79,447.4,577.96,447.2z"/>
</g>
<g id="Layer_10">
	<path class="st84" d="M592.42,493.16c25.87,0.11,51.74,0.23,77.61,0.32c22.04,0.07,31.88,14.22,23.8,34.56
		c-28.09,70.72-56.31,141.4-84.35,212.14c-3.37,8.49-8.59,14.74-17.3,17.82c-55.31,0-110.62,0-165.93,0
		c-5.04-4.98-12.48-8.03-13.19-16.47c0.93-0.3,2.14-0.32,2.76-0.93c19.06-18.96,38.32-37.72,56.92-57.11
		c7.13-7.43,6.01-20.01-0.85-27.12c-10.11-10.49-22.22-10.66-32.65-0.28c-17.47,17.38-34.86,34.83-52.28,52.27
		c-1.75,1.75-3.75,3.33-4.45,5.88c-4.84,0-9.68-0.01-14.51-0.01c-0.03-73.44-0.06-146.88-0.1-220.32c2.97-0.14,5.94-0.4,8.91-0.4
		c62.92-0.02,125.84,0,188.76-0.03C574.53,493.47,583.47,493.27,592.42,493.16z"/>
	<path class="st85" d="M367.91,493.9c0.03,73.44,0.06,146.88,0.1,220.32c-5.02,0-10.04,0.01-15.07,0.01
		c-0.32-0.93-0.37-2.11-0.99-2.74c-19.32-19.42-38.45-39.04-58.18-58.03c-8.07-7.76-20.88-6.2-28.92,2.09
		c-7.58,7.82-8.74,20.78-1.24,28.47c19.47,19.95,39.49,39.35,59.3,58.96c-1.98,7.89-8.74,11.08-14.75,15.01
		c-40.36,0-80.72,0-121.08,0c-9.21-4.55-13.85-12.61-18.06-21.61c-16.94-36.23-29.71-73.79-36.39-113.22
		c-5.54-32.72-8.64-65.64-1.01-98.55c2.53-10.92,6.17-21.48,12.16-31.09c73.52,0.03,147.03,0.06,220.55,0.08
		c1.23,0,2.46-0.26,3.68-0.4L367.91,493.9z"/>
	<path class="st86" d="M505.48,10.58c12.81,5.3,16.52,15.35,16.62,28.56c0.18,23.28,8.84,44.65,17.28,65.88
		c8.62,21.7,17.04,43.39,22.08,66.33c7.78,35.4,4.09,69.01-13.49,100.95c-8.27,15.02-16.93,29.88-22.5,46.2
		c-4.87,14.27-4.85,28.73-0.82,43.23c-52.22,0-104.43,0.01-156.65,0.01c0.03-58.15,0.05-116.29,0.08-174.44
		c42.18-3.97,65.71-29.85,65.73-72.29c0.01-25.58,0.38-51.16-0.15-76.73c-0.27-13.16,4.16-22.54,16.52-27.7
		C468.6,10.58,487.04,10.58,505.48,10.58z"/>
	<path class="st87" d="M368.08,187.29c-0.03,58.15-0.05,116.29-0.08,174.44c0,0-0.12,0.45-0.12,0.45c-2.98-0.09-5.97-0.26-8.95-0.26
		c-48.81-0.03-97.63-0.03-146.44-0.04c3.52-17.37,3.82-34.55-4.01-50.95c-5.47-11.44-11.16-22.8-17.26-33.92
		c-11.26-20.53-19.82-42.07-20.15-65.61c-0.29-20.35,2.93-40.5,9.14-60.09c7.37-23.25,17.43-45.47,25.51-68.45
		c5.41-15.38,8.81-31.16,9.2-47.3c0.29-12,5.81-19.46,15.5-24.97c18.44,0,36.87,0,55.31,0c12.88,5.06,17.09,14.67,16.75,28.18
		c-0.66,26.08-0.19,52.19-0.19,78.29c0,6.72,0.73,13.41,2.54,19.82C313.62,168.03,334.54,184.59,368.08,187.29z"/>
	<path class="st88" d="M368,361.73c52.22,0,104.43-0.01,156.65-0.01c5.16,24.22,17.52,45.1,30.57,65.64
		c12.09,19.03,24.35,37.96,34.43,58.18c1.21,2.44,2.67,4.78,2.77,7.62c-8.94,0.11-17.89,0.3-26.83,0.31
		c-62.92,0.03-125.84,0.01-188.76,0.03c-2.97,0-5.94,0.26-8.91,0.4c0,0,0.1-0.69,0.1-0.69c-0.02-14.39-0.03-28.77-0.05-43.16
		c15.62-0.52,21.8-11.48,22.25-22.65c0.47-11.6-9.58-20.44-22.28-20.71c-0.02-14.84-0.04-29.68-0.06-44.52L368,361.73z"/>
	<path class="st89" d="M608.88,362.32c0-6.97-0.18-13.95,0.04-20.92c0.42-13.32,9.45-22.67,21.8-22.84
		c12.67-0.17,22.12,9.26,22.39,22.97c0.28,13.94,0.25,27.9,0,41.84c-0.23,13-9.74,22.8-21.78,23.03
		c-12.19,0.23-22.07-9.88-22.41-23.16C608.73,376.27,608.88,369.29,608.88,362.32z"/>
	<path class="st90" d="M703.13,444.26c-10.31-0.02-16.8-4.42-20.67-12.48c-3.92-8.17-3.06-16.43,2.96-22.95
		c10.61-11.49,21.65-22.63,33.13-33.25c9.43-8.74,22.17-7.8,30.75,1.18c7.96,8.33,7.77,21.21-0.85,30.27
		c-9.59,10.07-19.46,19.88-29.27,29.74C714.45,441.5,709.01,444.74,703.13,444.26z"/>
	<path class="st91" d="M367.88,362.18c0.02,14.84,0.04,29.68,0.06,44.52l0,0c-11.77-1.52-21.15,10.19-21.06,19.18
		c0.14,14.11,7.69,23.26,21.09,24.18l0,0c0.02,14.39,0.03,28.77,0.05,43.16c-1.23,0.14-2.46,0.4-3.68,0.4
		c-73.52-0.01-147.03-0.05-220.55-0.08c9.24-21.47,21.6-41.19,34.37-60.66c14.55-22.18,27.78-44.97,34.34-71
		c48.81,0.01,97.63,0.02,146.44,0.04C361.91,361.91,364.89,362.08,367.88,362.18z"/>
	<path class="st92" d="M413.06,741.53c-1.82-7.32-1.04-14.79-0.98-22.18c0.03-3.9-1.2-5.12-5.07-5.02
		c-8.16,0.21-16.33-0.04-24.49-0.1c0.7-2.55,2.7-4.13,4.44-5.87c17.41-17.43,34.81-34.89,52.28-52.27
		c10.43-10.37,22.54-10.21,32.65,0.28c6.85,7.11,7.98,19.69,0.85,27.12c-18.61,19.39-37.87,38.15-56.92,57.11
		C415.2,741.21,413.99,741.23,413.06,741.53z"/>
	<path class="st84" d="M352.94,714.23c-5.43,0.06-10.85,0.16-16.28,0.17c-12.15,0.03-12.1,0.01-12.17,12.52
		c-0.03,5.4,0.68,10.89-1.59,16.08c-19.8-19.62-39.83-39.02-59.3-58.96c-7.51-7.69-6.34-20.65,1.24-28.47
		c8.04-8.29,20.85-9.86,28.92-2.09c19.74,18.99,38.86,38.61,58.18,58.03C352.57,712.12,352.62,713.31,352.94,714.23z"/>
	<path class="st93" d="M367.93,406.69c12.7,0.27,22.75,9.11,22.28,20.71c-0.45,11.16-6.63,22.12-22.25,22.65c0,0,0,0,0,0
		C367.95,435.6,367.94,421.15,367.93,406.69L367.93,406.69z"/>
	<path class="st94" d="M367.93,406.69c0.01,14.45,0.02,28.9,0.03,43.36c-13.4-0.92-20.95-10.07-21.09-24.18
		C346.79,416.88,356.16,405.17,367.93,406.69z"/>
</g>
</svg>
